<?xml version="1.0" standalone="no"?>
<!DOCTYPE svg PUBLIC "-//W3C//DTD SVG 1.1//EN" "http://www.w3.org/Graphics/SVG/1.1/DTD/svg11.dtd" >
<svg xmlns="http://www.w3.org/2000/svg" xmlns:xlink="http://www.w3.org/1999/xlink" version="1.1">
<metadata>
Created by FontForge 20170910 at Mon Dec  8 11:42:51 2003
 By Jimmy Wärting
Copyright (c) 1988, 1990, 1993, 2003 Linotype Library GmbH, www.linotype.com. All rights reserved. Copyright (c) 1988, 1990, 1993 Adobe Systems Incorporated. All Rights Reserved.
</metadata>
<defs>
<font id="HelveticaNeueLTPro-ThEx" horiz-adv-x="166" >
  <font-face 
    font-family="Helvetica Neue LT Pro"
    font-weight="250"
    font-stretch="normal"
    units-per-em="1000"
    panose-1="2 11 4 4 2 2 2 2 2 4"
    ascent="714"
    descent="-286"
    x-height="512"
    cap-height="714"
    bbox="-165 -220 1162 970"
    underline-thickness="50"
    underline-position="-100"
    stemh="40"
    stemv="46"
    unicode-range="U+000D-FB02"
  />
<missing-glyph horiz-adv-x="512" 
d="M222 117h56v67h-56v-67zM225 234h46c0 35 2 59 6 72s18 30 43 52c51 47 63 77 63 120c0 79 -53 131 -124 131c-72 0 -126 -42 -135 -137l50 -8c8 68 41 95 82 95s76 -37 76 -85c0 -25 -7 -42 -50 -83c-22 -22 -37 -42 -46 -59s-13 -44 -13 -81zM462 50h-412v617h412v-617
zM512 718h-512v-718h512v718z" />
    <glyph glyph-name="fi" unicode="fi" horiz-adv-x="444" 
d="M110 0v472h-120v40h120v77c0 80 23 131 130 131c23 0 50 -3 79 -6v-40c-23 4 -50 6 -73 6s-90 0 -90 -77v-91h148v-40h-148v-472h-46zM352 608v106h46v-106h-46zM352 0v512h46v-512h-46z" />
    <glyph glyph-name="fl" unicode="fl" horiz-adv-x="444" 
d="M352 0v714h46v-714h-46zM110 0v472h-120v40h120v77c0 80 23 131 130 131c23 0 50 -3 79 -6v-40c-23 4 -50 6 -73 6s-90 0 -90 -77v-91h148v-40h-148v-472h-46z" />
    <glyph glyph-name="napostrophe" unicode="&#x22;n" horiz-adv-x="632" 
d="M77 0v512h46v-102h2c32 61 100 118 216 118c235 0 235 -151 235 -212v-316h-46v314c0 104 -39 174 -190 174c-152 0 -217 -93 -217 -189v-299h-46zM49 714l1 110h49v-105c0 -49 -26 -63 -58 -65v22c20 4 29 13 29 38h-21z" />
    <glyph glyph-name="IJ" unicode="IJ" horiz-adv-x="710" 
d="M60 0v714h46v-714h-46zM197 228h46v-17c0 -64 15 -187 183 -187c123 0 178 64 178 187v503h46v-499c0 -156 -85 -231 -224 -231c-116 0 -229 50 -229 227v17z" />
    <glyph glyph-name="ij" unicode="ij" horiz-adv-x="364" 
d="M60 608v106h46v-106h-46zM60 0v512h46v-512h-46zM258 608v106h46v-106h-46zM304 512v-604c0 -89 -47 -128 -132 -128c-31 0 -47 3 -62 6v40c15 -3 39 -6 62 -6c85 0 86 58 86 128v564h46z" />
    <glyph glyph-name=".notdef" horiz-adv-x="512" 
d="M222 117h56v67h-56v-67zM225 234h46c0 35 2 59 6 72s18 30 43 52c51 47 63 77 63 120c0 79 -53 131 -124 131c-72 0 -126 -42 -135 -137l50 -8c8 68 41 95 82 95s76 -37 76 -85c0 -25 -7 -42 -50 -83c-22 -22 -37 -42 -46 -59s-13 -44 -13 -81zM462 50h-412v617h412v-617
zM512 718h-512v-718h512v718z" />
    <glyph glyph-name="space" unicode=" " horiz-adv-x="222" 
 />
    <glyph glyph-name="exclam" unicode="!" horiz-adv-x="258" 
d="M103 0v100h52v-100h-52zM103 523v191h52v-191c0 -113 -6 -226 -9 -339h-34c-3 113 -9 226 -9 339z" />
    <glyph glyph-name="quotedbl" unicode="&#x22;" horiz-adv-x="352" 
d="M226 484v230h40v-230h-40zM86 484v230h40v-230h-40z" />
    <glyph glyph-name="numbersign" unicode="#" horiz-adv-x="648" 
d="M396 262l25 180h-169l-25 -180h169zM157 0l31 228h-113v34h118l25 180h-113v34h118l31 228h34l-31 -228h169l31 228h34l-31 -228h113v-34h-118l-25 -180h113v-34h-118l-31 -228h-34l31 228h-169l-31 -228h-34z" />
    <glyph glyph-name="dollar" unicode="$" horiz-adv-x="648" 
d="M310 24v318l-51 11c-151 32 -210 77 -210 187c0 113 94 179 261 180v74h34v-74c156 -8 252 -76 257 -215h-46c-5 78 -48 167 -211 175v-299l62 -12c139 -27 214 -74 214 -186c0 -94 -62 -199 -276 -199v-94h-34v94c-204 11 -282 108 -282 249h46c1 -125 71 -201 236 -209
zM310 388v292c-157 -3 -209 -65 -209 -144c0 -93 77 -124 209 -148zM344 335v-311c164 0 224 74 224 156c0 79 -37 113 -167 142z" />
    <glyph glyph-name="percent" unicode="%" horiz-adv-x="926" 
d="M170 -22l529 748h40l-529 -748h-40zM695 18c96 0 134 71 134 159s-38 156 -134 156c-95 0 -134 -68 -134 -156s38 -159 134 -159zM695 -16c-118 0 -174 78 -174 193c0 111 58 190 174 190c119 0 174 -75 174 -190c0 -108 -56 -193 -174 -193zM231 371
c96 0 134 71 134 159s-38 156 -134 156c-95 0 -134 -68 -134 -156s38 -159 134 -159zM231 337c-118 0 -174 78 -174 193c0 111 58 190 174 190c119 0 174 -75 174 -190c0 -108 -56 -193 -174 -193z" />
    <glyph glyph-name="ampersand" unicode="&#x26;" horiz-adv-x="741" 
d="M566 127l-264 253c-112 -45 -195 -88 -195 -183c0 -115 97 -173 217 -173c146 0 224 80 242 103zM218 583c0 -70 84 -142 99 -155c55 24 143 65 143 149c0 79 -74 103 -121 103c-82 0 -121 -50 -121 -97zM344 399l249 -237c24 32 40 91 40 129h46
c0 -56 -26 -121 -56 -159l139 -132h-66l-100 96c-80 -83 -160 -112 -277 -112c-178 0 -258 105 -258 212c0 127 128 178 212 212c-65 70 -101 106 -101 173c0 52 38 139 167 139c91 0 167 -48 167 -139c0 -104 -106 -155 -162 -182z" />
    <glyph glyph-name="quoteright" unicode="&#x2019;" horiz-adv-x="222" 
d="M85 614v100h52v-100c0 -60 -18 -109 -70 -130v34c31 13 36 50 36 81v15h-18z" />
    <glyph glyph-name="parenleft" unicode="(" horiz-adv-x="296" 
d="M271 -190h-40c-99 137 -163 283 -163 452s64 313 163 452h40c-98 -156 -151 -265 -151 -452c0 -188 53 -295 151 -452z" />
    <glyph glyph-name="parenright" unicode=")" horiz-adv-x="296" 
d="M25 714h40c98 -138 163 -282 163 -452c0 -169 -66 -315 -163 -452h-40c98 157 151 264 151 452c0 187 -53 296 -151 452z" />
    <glyph glyph-name="asterisk" unicode="*" horiz-adv-x="408" 
d="M83 424l95 112l-139 50l14 33l134 -46v141h34v-141l134 46l14 -33l-139 -50l95 -112l-28 -22l-93 110l-93 -110z" />
    <glyph glyph-name="plus" unicode="+" horiz-adv-x="600" 
d="M47 233v40h233v233h40v-233h233v-40h-233v-233h-40v233h-233z" />
    <glyph glyph-name="comma" unicode="," horiz-adv-x="222" 
d="M85 0v100h52v-100c0 -60 -18 -109 -70 -130v34c31 13 36 50 36 81v15h-18z" />
    <glyph glyph-name="hyphen" unicode="-" horiz-adv-x="407" 
d="M75 247v46h257v-46h-257z" />
    <glyph glyph-name="period" unicode="." horiz-adv-x="222" 
d="M85 0v100h52v-100h-52z" />
    <glyph glyph-name="slash" unicode="/" horiz-adv-x="407" 
d="M418 730l-383 -746h-46l383 746h46z" />
    <glyph glyph-name="zero" unicode="0" horiz-adv-x="648" 
d="M573 352c0 172 -54 328 -249 328c-191 0 -249 -161 -249 -328c0 -165 57 -328 249 -328c196 0 249 156 249 328zM619 352c0 -198 -71 -368 -295 -368c-220 0 -295 173 -295 368s76 368 295 368c221 0 295 -172 295 -368z" />
    <glyph glyph-name="one" unicode="1" horiz-adv-x="426" 
d="M293 704v-704h-46v625c-63 -57 -147 -84 -222 -91v40c74 3 196 55 228 130h40z" />
    <glyph glyph-name="two" unicode="2" horiz-adv-x="648" 
d="M590 40v-40h-532c16 132 69 172 238 268c163 93 233 131 233 243c0 108 -73 169 -208 169c-147 0 -205 -80 -205 -211h-46c3 176 89 251 258 251c168 0 247 -84 247 -207c0 -131 -67 -171 -262 -283c-68 -39 -203 -115 -203 -190h480z" />
    <glyph glyph-name="three" unicode="3" horiz-adv-x="648" 
d="M288 356v40c107 0 246 0 246 132c0 118 -94 152 -197 152c-133 0 -222 -57 -222 -196h-46c5 167 108 236 268 236c151 0 243 -66 243 -185c0 -103 -65 -147 -156 -155v-2c69 -3 174 -43 174 -192c0 -117 -89 -202 -270 -202c-171 0 -275 77 -278 250h46
c0 -147 86 -210 237 -210c98 0 219 31 219 172c0 160 -168 160 -264 160z" />
    <glyph glyph-name="four" unicode="4" horiz-adv-x="648" 
d="M425 646l-338 -427h340v427h-2zM41 226l383 478h49v-485h134v-40h-134v-179h-46v179h-386v47z" />
    <glyph glyph-name="five" unicode="5" horiz-adv-x="648" 
d="M73 335l78 369h407v-40h-371l-60 -271h2c53 53 131 77 206 77c161 0 261 -98 261 -238c0 -165 -115 -248 -277 -248c-146 0 -262 81 -267 229h46c11 -132 99 -189 227 -189c141 0 225 70 225 206c0 95 -61 200 -225 200c-102 0 -174 -50 -206 -95h-46z" />
    <glyph glyph-name="six" unicode="6" horiz-adv-x="648" 
d="M338 430c-147 0 -229 -84 -229 -200c0 -73 38 -206 227 -206c125 0 215 81 215 206c0 115 -75 200 -213 200zM584 536h-46c-11 105 -103 144 -199 144c-216 0 -242 -188 -242 -357h2c22 68 98 147 236 147c148 0 262 -86 262 -240c0 -141 -102 -246 -268 -246
c-213 0 -278 151 -278 341c0 214 45 395 296 395c139 0 229 -75 237 -184z" />
    <glyph glyph-name="seven" unicode="7" horiz-adv-x="593" 
d="M38 664v40h517v-45c-200 -205 -296 -371 -336 -659h-52c39 259 147 483 342 662v2h-471z" />
    <glyph glyph-name="eight" unicode="8" horiz-adv-x="648" 
d="M122 538c0 -112 110 -135 202 -135c93 0 202 23 202 137c0 111 -110 140 -202 140c-98 0 -202 -26 -202 -142zM42 191c0 137 105 179 180 192v2c-113 24 -146 85 -146 161c0 138 133 174 248 174s248 -36 248 -174c0 -76 -33 -137 -146 -161v-2c75 -13 180 -55 180 -192
c0 -131 -94 -207 -282 -207s-282 76 -282 207zM88 192c0 -98 71 -168 236 -168c102 0 236 30 236 168c0 108 -73 171 -236 171c-161 0 -236 -63 -236 -171z" />
    <glyph glyph-name="nine" unicode="9" horiz-adv-x="648" 
d="M310 274c147 0 229 84 229 200c0 73 -38 206 -227 206c-125 0 -215 -81 -215 -206c0 -115 75 -200 213 -200zM64 168h46c11 -105 103 -144 199 -144c216 0 242 188 242 357h-2c-21 -68 -99 -147 -236 -147c-148 0 -262 86 -262 240c0 139 102 246 268 246
c213 0 278 -151 278 -341c0 -214 -45 -395 -296 -395c-139 0 -229 75 -237 184z" />
    <glyph glyph-name="colon" unicode=":" horiz-adv-x="222" 
d="M85 0v100h52v-100h-52zM85 395v100h52v-100h-52z" />
    <glyph glyph-name="semicolon" unicode=";" horiz-adv-x="222" 
d="M85 395v100h52v-100h-52zM85 0v100h52v-100c0 -60 -18 -109 -70 -130v34c31 13 36 50 36 81v15h-18z" />
    <glyph glyph-name="semicolon" unicode="&#x37e;" horiz-adv-x="222" 
d="M85 395v100h52v-100h-52zM85 0v100h52v-100c0 -60 -18 -109 -70 -130v34c31 13 36 50 36 81v15h-18z" />
    <glyph glyph-name="less" unicode="&#x3c;" horiz-adv-x="600" 
d="M47 228v52l506 236v-40l-472 -223l472 -223v-40z" />
    <glyph glyph-name="equal" unicode="=" horiz-adv-x="600" 
d="M553 176v-40h-506v40h506zM553 370v-40h-506v40h506z" />
    <glyph glyph-name="greater" unicode="&#x3e;" horiz-adv-x="600" 
d="M47 -10v40l472 223l-472 223v40l506 -238v-52z" />
    <glyph glyph-name="question" unicode="?" horiz-adv-x="630" 
d="M277 0v100h52v-100h-52zM326 184h-46v23c0 94 28 116 121 177c88 59 114 90 114 153c0 109 -101 153 -201 153c-137 0 -217 -59 -218 -196h-46c0 164 106 236 258 236c147 0 253 -60 253 -190c0 -84 -36 -127 -130 -186c-82 -53 -105 -71 -105 -137v-33z" />
    <glyph glyph-name="at" unicode="@" horiz-adv-x="800" 
d="M543 493l23 67h46l-101 -309c-7 -19 -12 -34 -12 -49c0 -20 13 -30 40 -30c84 0 194 99 194 246c0 157 -131 272 -311 272c-216 0 -355 -149 -355 -333c0 -181 149 -333 331 -333c91 0 194 20 256 85h46c-75 -97 -182 -125 -300 -125c-205 0 -373 165 -373 373
c0 205 159 373 391 373c213 0 355 -134 355 -302c0 -182 -143 -296 -241 -296c-41 0 -70 23 -73 71h-2c-35 -47 -87 -71 -135 -71c-72 0 -129 58 -129 150c0 142 98 298 236 298c52 0 104 -34 112 -87h2zM336 166c95 0 177 167 177 263c0 91 -40 117 -88 117
c-113 0 -192 -157 -192 -259c0 -73 44 -121 103 -121z" />
    <glyph glyph-name="A" unicode="A" horiz-adv-x="686" 
d="M343 662l-179 -392h358zM-11 0l328 714h52l328 -714h-52l-105 230h-394l-105 -230h-52z" />
    <glyph glyph-name="B" unicode="B" horiz-adv-x="722" 
d="M60 0v714h385c137 0 208 -63 208 -176c0 -71 -33 -140 -140 -164v-2c139 -13 164 -115 164 -176c0 -76 -42 -196 -239 -196h-378zM106 350v-310h322c36 0 203 0 203 160c0 149 -136 150 -215 150h-310zM106 674v-284h318c37 0 183 0 183 145c0 140 -114 139 -190 139
h-311z" />
    <glyph glyph-name="C" unicode="C" horiz-adv-x="796" 
d="M714 271h46c-16 -136 -138 -287 -351 -287c-216 0 -380 137 -380 373c0 173 118 373 380 373c172 0 302 -80 339 -240h-46c-35 137 -158 200 -293 200c-204 0 -334 -153 -334 -333c0 -179 115 -333 334 -333c158 0 278 92 305 247z" />
    <glyph glyph-name="D" unicode="D" horiz-adv-x="759" 
d="M106 674v-634h289c157 0 273 97 273 317c0 226 -115 317 -284 317h-278zM60 0v714h334c169 0 320 -81 320 -357c0 -209 -106 -357 -328 -357h-326z" />
    <glyph glyph-name="E" unicode="E" horiz-adv-x="648" 
d="M60 0v714h564v-40h-518v-284h497v-40h-497v-310h524v-40h-570z" />
    <glyph glyph-name="F" unicode="F" horiz-adv-x="593" 
d="M60 0v714h518v-40h-472v-284h446v-40h-446v-350h-46z" />
    <glyph glyph-name="G" unicode="G" horiz-adv-x="833" 
d="M440 316v40h333v-356h-40v176h-2c-53 -128 -175 -192 -312 -192c-216 0 -380 137 -380 373c0 173 118 373 380 373c175 0 305 -86 339 -240h-46c-30 132 -150 200 -293 200c-204 0 -334 -153 -334 -333c0 -179 115 -333 334 -333c180 0 297 111 308 292h-287z" />
    <glyph glyph-name="H" unicode="H" horiz-adv-x="759" 
d="M60 0v714h46v-318h547v318h46v-714h-46v356h-547v-356h-46z" />
    <glyph glyph-name="I" unicode="I" 
d="M60 0v714h46v-714h-46z" />
    <glyph glyph-name="J" unicode="J" horiz-adv-x="537" 
d="M24 228h46v-17c0 -64 15 -187 183 -187c123 0 178 64 178 187v503h46v-499c0 -156 -85 -231 -224 -231c-116 0 -229 50 -229 227v17z" />
    <glyph glyph-name="K" unicode="K" horiz-adv-x="704" 
d="M60 0v714h46v-410l514 410h73l-370 -295l396 -419h-64l-368 390l-181 -144v-246h-46z" />
    <glyph glyph-name="L" unicode="L" horiz-adv-x="574" 
d="M60 0v714h46v-674h468v-40h-514z" />
    <glyph glyph-name="M" unicode="M" horiz-adv-x="962" 
d="M65 0v714h69l347 -656l347 656h69v-714h-46v650h-2l-345 -650h-46l-345 650h-2v-650h-46z" />
    <glyph glyph-name="N" unicode="N" horiz-adv-x="759" 
d="M60 0v714h58l533 -650h2v650h46v-714h-58l-533 650h-2v-650h-46z" />
    <glyph glyph-name="O" unicode="O" horiz-adv-x="816" 
d="M29 357c0 139 89 373 379 373c289 0 379 -234 379 -373s-90 -373 -379 -373s-379 234 -379 373zM75 357c0 -171 118 -333 333 -333s333 162 333 333s-118 333 -333 333s-333 -162 -333 -333z" />
    <glyph glyph-name="P" unicode="P" horiz-adv-x="667" 
d="M106 674v-320h318c88 0 179 35 179 160c0 160 -129 160 -190 160h-307zM60 0v714h372c100 0 217 -35 217 -198c0 -120 -68 -202 -224 -202h-319v-314h-46z" />
    <glyph glyph-name="Q" unicode="Q" horiz-adv-x="816" 
d="M752 -51l-130 92c-55 -35 -123 -57 -214 -57c-289 0 -379 234 -379 373s89 373 379 373c289 0 379 -234 379 -373c0 -87 -35 -210 -130 -289l119 -84zM469 149l24 35l127 -91c80 67 121 163 121 264c0 171 -118 333 -333 333s-333 -162 -333 -333s118 -333 333 -333
c69 0 128 17 175 45z" />
    <glyph glyph-name="R" unicode="R" horiz-adv-x="704" 
d="M106 674v-309h311c45 0 203 0 203 163c0 116 -90 146 -191 146h-323zM60 0v714h365c137 0 241 -40 241 -189c0 -76 -45 -153 -146 -177v-2c88 -11 133 -71 134 -148c3 -132 7 -171 20 -198h-46c-13 12 -17 57 -20 166c-3 124 -43 159 -184 159h-318v-325h-46z" />
    <glyph glyph-name="S" unicode="S" horiz-adv-x="667" 
d="M28 236h46c1 -133 82 -212 274 -212c176 0 239 75 239 159c0 81 -39 115 -188 147l-133 28c-157 32 -216 80 -216 187s94 185 270 185c180 0 294 -66 299 -218h-46c-5 82 -53 178 -240 178c-174 0 -231 -64 -231 -146c0 -76 33 -114 169 -141l147 -29
c143 -29 221 -74 221 -188c0 -97 -64 -202 -287 -202c-235 0 -324 100 -324 252z" />
    <glyph glyph-name="T" unicode="T" horiz-adv-x="592" 
d="M-15 674v40h622v-40h-288v-674h-46v674h-288z" />
    <glyph glyph-name="U" unicode="U" horiz-adv-x="740" 
d="M54 264v450h46v-448c0 -152 73 -242 270 -242s270 90 270 242v448h46v-450c0 -185 -105 -280 -316 -280s-316 95 -316 280z" />
    <glyph glyph-name="V" unicode="V" horiz-adv-x="668" 
d="M308 0l-317 714h52l291 -656l291 656h52l-317 -714h-52z" />
    <glyph glyph-name="W" unicode="W" horiz-adv-x="1018" 
d="M220 0l-235 714h52l212 -650h2l229 650h58l229 -650h2l212 650h52l-235 -714h-58l-230 650h-2l-230 -650h-58z" />
    <glyph glyph-name="X" unicode="X" horiz-adv-x="648" 
d="M-9 0l303 363l-292 351h62l260 -315l265 315h58l-292 -351l302 -363h-61l-272 328l-275 -328h-58z" />
    <glyph glyph-name="Y" unicode="Y" horiz-adv-x="668" 
d="M311 300l-331 414h64l290 -371l296 371h58l-331 -414v-300h-46v300z" />
    <glyph glyph-name="Z" unicode="Z" horiz-adv-x="611" 
d="M-5 0v49l561 625h-528v40h580v-46l-561 -628h569v-40h-621z" />
    <glyph glyph-name="bracketleft" unicode="[" horiz-adv-x="296" 
d="M96 -190v904h166v-40h-120v-824h120v-40h-166z" />
    <glyph glyph-name="backslash" unicode="\" horiz-adv-x="407" 
d="M372 -16l-383 746h46l383 -746h-46z" />
    <glyph glyph-name="bracketright" unicode="]" horiz-adv-x="296" 
d="M154 -150v824h-120v40h166v-904h-166v40h120z" />
    <glyph glyph-name="asciicircum" unicode="^" horiz-adv-x="600" 
d="M39 251l236 453h52l234 -453h-40l-221 419l-221 -419h-40z" />
    <glyph glyph-name="underscore" unicode="_" horiz-adv-x="500" 
d="M500 -125h-500v50h500v-50z" />
    <glyph glyph-name="quoteleft" unicode="&#x2018;" horiz-adv-x="222" 
d="M85 484v100c0 60 18 109 70 130v-34c-31 -13 -36 -50 -36 -81v-15h18v-100h-52z" />
    <glyph glyph-name="a" unicode="a" horiz-adv-x="593" 
d="M95 354h-46c16 129 84 174 238 174c148 0 235 -35 235 -150v-287c0 -38 -1 -61 34 -61c14 0 29 3 45 8v-40c-15 -5 -33 -8 -56 -8c-63 0 -63 44 -63 112h-2c-56 -105 -177 -118 -244 -118c-44 0 -210 0 -210 156c0 104 89 142 193 147l179 12c53 3 78 11 78 73
c0 69 -39 116 -190 116c-135 0 -178 -42 -191 -134zM476 192v94h-2c-11 -12 -38 -24 -82 -27l-173 -12c-85 -5 -147 -31 -147 -107c0 -104 106 -116 167 -116c102 0 237 45 237 168z" />
    <glyph glyph-name="b" unicode="b" horiz-adv-x="630" 
d="M336 24c127 0 222 87 222 234c0 156 -110 230 -228 230c-104 0 -234 -57 -234 -237c0 -92 48 -227 240 -227zM56 0v714h46v-311h2c29 56 101 125 227 125c156 0 273 -108 273 -271c0 -144 -93 -273 -273 -273c-132 0 -203 67 -227 128h-2v-112h-46z" />
    <glyph glyph-name="c" unicode="c" horiz-adv-x="611" 
d="M578 351h-46c-5 64 -94 137 -217 137c-163 0 -243 -115 -243 -237c0 -83 58 -227 243 -227c104 0 200 49 224 155h46c-27 -134 -142 -195 -270 -195c-168 0 -289 108 -289 267c0 180 132 277 289 277c156 0 258 -90 263 -177z" />
    <glyph glyph-name="d" unicode="d" horiz-adv-x="630" 
d="M294 24c192 0 240 135 240 227c0 180 -130 237 -234 237c-118 0 -228 -74 -228 -230c0 -147 95 -234 222 -234zM528 0v112h-2c-24 -61 -95 -128 -227 -128c-180 0 -273 129 -273 273c0 163 117 271 273 271c126 0 198 -69 227 -125h2v311h46v-714h-46z" />
    <glyph glyph-name="e" unicode="e" horiz-adv-x="611" 
d="M72 286h470c-19 140 -118 202 -235 202c-133 0 -215 -79 -235 -202zM594 246h-522c3 -128 89 -222 244 -222c160 0 199 101 218 146h46c-43 -129 -132 -186 -269 -186c-175 0 -285 105 -285 276c0 107 67 268 286 268c179 0 279 -118 282 -282z" />
    <glyph glyph-name="f" unicode="f" horiz-adv-x="296" 
d="M110 0v472h-120v40h120v77c0 80 23 131 130 131c23 0 50 -3 79 -6v-40c-23 4 -50 6 -73 6s-90 0 -90 -77v-91h148v-40h-148v-472h-46z" />
    <glyph glyph-name="g" unicode="g" horiz-adv-x="648" 
d="M546 408v104h46v-487c0 -116 -43 -245 -280 -245c-160 0 -248 47 -265 172h46c11 -81 69 -132 219 -132c199 0 234 108 234 203v106h-2c-45 -85 -132 -123 -240 -123c-199 0 -278 127 -278 264c0 133 83 258 279 258c91 0 191 -26 239 -119zM305 488
c-121 0 -233 -68 -233 -216c0 -147 85 -226 238 -226c133 0 236 71 236 227c0 136 -90 215 -241 215z" />
    <glyph glyph-name="h" unicode="h" horiz-adv-x="611" 
d="M56 0v714h46v-304h2c32 61 100 118 216 118c235 0 235 -151 235 -212v-316h-46v314c0 104 -39 174 -190 174c-152 0 -217 -93 -217 -189v-299h-46z" />
    <glyph glyph-name="i" unicode="i" 
d="M60 608v106h46v-106h-46zM60 0v512h46v-512h-46z" />
    <glyph glyph-name="j" unicode="j" 
d="M60 608v106h46v-106h-46zM106 512v-604c0 -89 -47 -128 -132 -128c-31 0 -47 3 -62 6v40c15 -3 39 -6 62 -6c85 0 86 58 86 128v564h46z" />
    <glyph glyph-name="k" unicode="k" horiz-adv-x="556" 
d="M56 0v714h46v-474l365 272h68l-259 -193l283 -319h-63l-256 290l-138 -102v-188h-46z" />
    <glyph glyph-name="l" unicode="l" 
d="M60 0v714h46v-714h-46z" />
    <glyph glyph-name="m" unicode="m" horiz-adv-x="964" 
d="M56 0v512h46v-87h2c40 67 116 103 197 103c125 0 175 -55 196 -119c37 79 103 119 198 119c148 0 213 -65 213 -181v-347h-46v332c0 84 -46 156 -166 156c-125 0 -191 -65 -191 -173v-315h-46v341c0 91 -47 147 -166 147c-112 0 -191 -66 -191 -183v-305h-46z" />
    <glyph glyph-name="n" unicode="n" horiz-adv-x="611" 
d="M56 0v512h46v-102h2c32 61 100 118 216 118c235 0 235 -151 235 -212v-316h-46v314c0 104 -39 174 -190 174c-152 0 -217 -93 -217 -189v-299h-46z" />
    <glyph glyph-name="o" unicode="o" horiz-adv-x="630" 
d="M26 256c0 143 106 272 289 272s289 -129 289 -272c0 -145 -106 -272 -289 -272s-289 127 -289 272zM72 256c0 -116 80 -232 243 -232s243 116 243 232s-80 232 -243 232s-243 -116 -243 -232z" />
    <glyph glyph-name="p" unicode="p" horiz-adv-x="630" 
d="M336 488c-192 0 -240 -135 -240 -227c0 -180 130 -237 234 -237c118 0 228 74 228 230c0 147 -95 234 -222 234zM56 -202v714h46v-112h2c24 61 95 128 227 128c180 0 273 -129 273 -273c0 -163 -117 -271 -273 -271c-126 0 -198 69 -227 125h-2v-311h-46z" />
    <glyph glyph-name="q" unicode="q" horiz-adv-x="630" 
d="M294 488c-127 0 -222 -87 -222 -234c0 -156 110 -230 228 -230c104 0 234 57 234 237c0 92 -48 227 -240 227zM528 -202v311h-2c-29 -56 -101 -125 -227 -125c-156 0 -273 108 -273 271c0 144 93 273 273 273c132 0 203 -67 227 -128h2v112h46v-714h-46z" />
    <glyph glyph-name="r" unicode="r" horiz-adv-x="352" 
d="M56 0v512h46v-121h2c35 91 112 137 212 137c15 0 23 -2 38 -6v-46c-11 4 -24 6 -53 6c-133 0 -199 -101 -199 -205v-277h-46z" />
    <glyph glyph-name="s" unicode="s" horiz-adv-x="537" 
d="M496 362h-46c-7 85 -61 126 -194 126c-125 0 -167 -49 -167 -102c0 -56 42 -79 103 -87l163 -22c96 -13 161 -48 161 -140c0 -139 -158 -153 -245 -153c-141 0 -242 48 -250 176h46c5 -52 17 -136 216 -136c135 0 187 40 187 113c0 60 -43 85 -103 93l-180 24
c-64 8 -144 37 -144 129c0 58 41 145 215 145c189 0 233 -86 238 -166z" />
    <glyph glyph-name="t" unicode="t" horiz-adv-x="315" 
d="M106 512v173h46v-173h152v-40h-152v-369c0 -63 36 -73 93 -73c21 0 43 3 64 6v-40c-24 -5 -53 -6 -78 -6c-107 0 -125 40 -125 138v344h-116v40h116z" />
    <glyph glyph-name="u" unicode="u" horiz-adv-x="611" 
d="M555 512v-512h-46v102h-2c-32 -61 -100 -118 -216 -118c-235 0 -235 150 -235 212v316h46v-314c0 -104 39 -174 190 -174c152 0 217 93 217 189v299h46z" />
    <glyph glyph-name="v" unicode="v" horiz-adv-x="556" 
d="M255 0l-253 512h52l224 -466l224 466h52l-253 -512h-46z" />
    <glyph glyph-name="w" unicode="w" horiz-adv-x="870" 
d="M231 58l175 454h58l181 -454l179 454h52l-209 -512h-52l-180 460l-180 -460h-52l-209 512h52z" />
    <glyph glyph-name="x" unicode="x" horiz-adv-x="537" 
d="M-11 0l248 267l-227 245h64l195 -211l196 211h58l-225 -242l250 -270h-64l-218 235l-219 -235h-58z" />
    <glyph glyph-name="y" unicode="y" horiz-adv-x="519" 
d="M246 0l-259 512h52l230 -461l211 461h52l-282 -602c-26 -55 -52 -94 -132 -94h-64v40h55c59 0 72 13 111 92z" />
    <glyph glyph-name="z" unicode="z" horiz-adv-x="519" 
d="M12 0v46l417 426h-391v40h455v-34l-429 -438h443v-40h-495z" />
    <glyph glyph-name="braceleft" unicode="{" horiz-adv-x="296" 
d="M53 242v40c59 3 72 81 72 162v152c0 91 32 118 88 118h58v-40h-48c-40 0 -52 -11 -52 -96v-151c0 -113 -41 -152 -72 -165c31 -13 72 -52 72 -165v-151c0 -85 12 -96 52 -96h48v-40h-58c-56 0 -88 27 -88 118v152c0 81 -13 159 -72 162z" />
    <glyph glyph-name="bar" unicode="|" horiz-adv-x="222" 
d="M91 -16v746h40v-746h-40z" />
    <glyph glyph-name="braceright" unicode="}" horiz-adv-x="296" 
d="M125 -54v151c0 113 41 152 72 165c-31 13 -72 52 -72 165v151c0 85 -12 96 -52 96h-48v40h58c56 0 88 -27 88 -118v-152c0 -81 13 -159 72 -162v-40c-59 -3 -72 -81 -72 -162v-152c0 -91 -32 -118 -88 -118h-58v40h48c40 0 52 11 52 96z" />
    <glyph glyph-name="asciitilde" unicode="~" horiz-adv-x="600" 
d="M101 192l-29 32c31 51 61 83 122 83c40 0 66 -12 111 -32c28 -13 59 -36 102 -36c38 0 76 43 92 75l29 -30c-27 -40 -63 -85 -122 -85c-37 0 -69 15 -114 38c-23 11 -65 30 -92 30c-59 0 -86 -43 -99 -75z" />
    <glyph glyph-name="exclamdown" unicode="&#xa1;" horiz-adv-x="258" 
d="M103 412v100h52v-100h-52zM103 -202v191c0 113 6 226 9 339h34c3 -113 9 -226 9 -339v-191h-52z" />
    <glyph glyph-name="cent" unicode="&#xa2;" horiz-adv-x="648" 
d="M310 -125v110c-155 8 -265 115 -265 266c0 171 119 268 265 276v93h34v-92c151 -3 248 -93 253 -177h-46c-5 62 -90 134 -207 137v-464c107 0 190 52 213 155h46c-27 -131 -134 -195 -259 -195v-109h-34zM310 25v462c-147 -11 -219 -120 -219 -236
c0 -80 54 -215 219 -226z" />
    <glyph glyph-name="sterling" unicode="&#xa3;" horiz-adv-x="648" 
d="M55 322v34h75c-39 67 -59 124 -59 173c0 51 28 191 255 191c219 0 267 -118 267 -242h-46c0 156 -92 202 -222 202c-96 0 -208 -36 -208 -151c0 -53 36 -117 65 -173h227v-34h-213c12 -31 19 -53 19 -82c0 -83 -58 -156 -119 -206l2 -2c64 36 105 36 132 36
c35 0 70 -11 105 -22s69 -22 98 -22c69 0 124 45 154 81l21 -38c-59 -61 -124 -83 -175 -83c-40 0 -76 11 -111 22s-69 22 -105 22c-63 0 -81 -9 -151 -44l-26 39c78 70 129 127 129 210c0 31 -13 70 -25 89h-89z" />
    <glyph glyph-name="fraction" unicode="&#x2044;" horiz-adv-x="167" 
d="M-165 -16l457 736h40l-457 -736h-40z" />
    <glyph glyph-name="yen" unicode="&#xa5;" horiz-adv-x="648" 
d="M301 0v170h-211v34h211v96l-12 16h-199v34h173l-273 354h64l265 -354h10l271 354h58l-273 -354h173v-34h-199l-12 -16v-96h211v-34h-211v-170h-46z" />
    <glyph glyph-name="florin" unicode="&#x192;" horiz-adv-x="648" 
d="M148 390l8 34h138l33 153c21 101 64 143 170 143c21 0 44 -2 69 -6l-8 -40c-42 4 -28 5 -43 5c-3 0 -12 0 -25 1c-82 0 -105 -44 -121 -116l-29 -140h141l-6 -34h-142l-83 -398c-21 -107 -40 -182 -180 -182c-23 0 -48 1 -71 4l7 40c28 -4 52 -4 64 -4
c91 0 112 48 122 98l95 442h-139z" />
    <glyph glyph-name="section" unicode="&#xa7;" horiz-adv-x="648" 
d="M461 343l-253 117c-24 0 -118 -35 -118 -113c0 -65 47 -88 110 -117l236 -109c4 0 122 14 122 111c0 65 -55 93 -97 111zM530 549h-46c0 38 0 141 -168 141c-47 0 -161 0 -161 -103c0 -31 16 -59 73 -86l266 -123c64 -31 110 -72 110 -133c0 -113 -104 -141 -133 -146
c23 -16 65 -45 65 -113c0 -125 -114 -148 -218 -148c-85 0 -218 22 -218 188h46c0 -104 59 -148 174 -148c32 0 170 0 170 101c0 66 -50 87 -108 116l-204 95c-107 51 -134 93 -134 151c0 100 99 133 131 141c-29 19 -66 45 -66 108c0 88 81 140 196 140
c138 0 225 -45 225 -181z" />
    <glyph glyph-name="currency" unicode="&#xa4;" horiz-adv-x="648" 
d="M122 352c0 -112 90 -202 202 -202s202 90 202 202s-90 202 -202 202s-202 -90 -202 -202zM566 138l-27 -28l-54 55c-47 -41 -105 -61 -161 -61c-59 0 -114 20 -161 61l-55 -55l-28 26l57 55c-40 47 -60 104 -61 161c0 57 20 114 61 161l-57 56l28 26l55 -55
c47 39 102 59 161 60c56 0 114 -20 161 -61l54 56l27 -28l-55 -54c41 -47 61 -104 61 -161s-20 -115 -61 -160z" />
    <glyph glyph-name="quotesingle" unicode="'" horiz-adv-x="222" 
d="M91 484v230h40v-230h-40z" />
    <glyph glyph-name="quotedblleft" unicode="&#x201c;" horiz-adv-x="352" 
d="M226 484v100c0 60 18 109 70 130v-34c-31 -13 -36 -50 -36 -81v-15h18v-100h-52zM74 484v100c0 60 18 109 70 130v-34c-31 -13 -36 -50 -36 -81v-15h18v-100h-52z" />
    <glyph glyph-name="guillemotleft" unicode="&#xab;" horiz-adv-x="444" 
d="M107 270l102 -104v-54l-136 135v46l136 135v-54zM255 270l102 -104v-54l-136 135v46l136 135v-54z" />
    <glyph glyph-name="guilsinglleft" unicode="&#x2039;" horiz-adv-x="296" 
d="M73 247v46l136 135v-54l-102 -104l102 -104v-54z" />
    <glyph glyph-name="guilsinglright" unicode="&#x203a;" horiz-adv-x="296" 
d="M189 270l-102 104v54l136 -135v-46l-136 -135v54z" />
    <glyph glyph-name="endash" unicode="&#x2013;" horiz-adv-x="500" 
d="M0 253v34h500v-34h-500z" />
    <glyph glyph-name="dagger" unicode="&#x2020;" horiz-adv-x="648" 
d="M50 430v40h251v244h46v-244h251v-40h-251v-586h-46v586h-251z" />
    <glyph glyph-name="daggerdbl" unicode="&#x2021;" horiz-adv-x="648" 
d="M50 46v40h251v386h-251v40h251v202h46v-202h251v-40h-251v-386h251v-40h-251v-202h-46v202h-251z" />
    <glyph glyph-name="periodcentered" unicode="&#xb7;" horiz-adv-x="222" 
d="M55 320c0 31 25 56 56 56s56 -25 56 -56s-25 -56 -56 -56s-56 25 -56 56z" />
    <glyph glyph-name="paragraph" unicode="&#xb6;" horiz-adv-x="600" 
d="M258 -146v470c-117 0 -207 89 -207 194c0 129 82 196 223 196h217v-860h-40v820h-153v-820h-40z" />
    <glyph glyph-name="bullet" unicode="&#x2022;" horiz-adv-x="500" 
d="M72 357c0 99 79 178 178 178s178 -79 178 -178s-79 -178 -178 -178s-178 79 -178 178z" />
    <glyph glyph-name="quotesinglbase" unicode="&#x201a;" horiz-adv-x="222" 
d="M85 0v100h52v-100c0 -60 -18 -109 -70 -130v34c31 13 36 50 36 81v15h-18z" />
    <glyph glyph-name="quotedblbase" unicode="&#x201e;" horiz-adv-x="352" 
d="M226 0v100h52v-100c0 -60 -18 -109 -70 -130v34c31 13 36 50 36 81v15h-18zM74 0v100h52v-100c0 -60 -18 -109 -70 -130v34c31 13 36 50 36 81v15h-18z" />
    <glyph glyph-name="quotedblright" unicode="&#x201d;" horiz-adv-x="352" 
d="M226 614v100h52v-100c0 -60 -18 -109 -70 -130v34c31 13 36 50 36 81v15h-18zM74 614v100h52v-100c0 -60 -18 -109 -70 -130v34c31 13 36 50 36 81v15h-18z" />
    <glyph glyph-name="guillemotright" unicode="&#xbb;" horiz-adv-x="444" 
d="M189 270l-102 104v54l136 -135v-46l-136 -135v54zM337 270l-102 104v54l136 -135v-46l-136 -135v54z" />
    <glyph glyph-name="ellipsis" unicode="&#x2026;" horiz-adv-x="1000" 
d="M807 0v100h52v-100h-52zM474 0v100h52v-100h-52zM141 0v100h52v-100h-52z" />
    <glyph glyph-name="perthousand" unicode="&#x2030;" horiz-adv-x="1167" 
d="M91 -22l529 748h40l-529 -748h-40zM179 371c96 0 134 71 134 159s-38 156 -134 156c-95 0 -134 -68 -134 -156s38 -159 134 -159zM179 337c-118 0 -174 78 -174 193c0 111 58 190 174 190c119 0 174 -75 174 -190c0 -108 -56 -193 -174 -193zM589 18c96 0 134 71 134 159
s-38 156 -134 156c-95 0 -134 -68 -134 -156s38 -159 134 -159zM589 -16c-118 0 -174 78 -174 193c0 111 58 190 174 190c119 0 174 -75 174 -190c0 -108 -56 -193 -174 -193zM988 18c96 0 134 71 134 159s-38 156 -134 156c-95 0 -134 -68 -134 -156s38 -159 134 -159z
M988 -16c-118 0 -174 78 -174 193c0 111 58 190 174 190c119 0 174 -75 174 -190c0 -108 -56 -193 -174 -193z" />
    <glyph glyph-name="questiondown" unicode="&#xbf;" horiz-adv-x="630" 
d="M353 512v-100h-52v100h52zM304 328h46v-23c0 -95 -29 -115 -121 -177c-88 -61 -114 -88 -114 -153c0 -109 101 -153 201 -153c137 0 217 59 218 196h46c0 -164 -106 -236 -258 -236c-147 0 -253 60 -253 190c0 85 37 125 130 186c82 53 105 71 105 137v33z" />
    <glyph glyph-name="grave" unicode="`" 
d="M103 599l-157 142h58l144 -142h-45z" />
    <glyph glyph-name="acute" unicode="&#xb4;" 
d="M162 741h58l-157 -142h-45z" />
    <glyph glyph-name="circumflex" unicode="&#x2c6;" 
d="M266 599h-53l-130 114l-130 -114h-53l155 142h56z" />
    <glyph glyph-name="tilde" unicode="&#x2dc;" 
d="M-57 626h-34c5 44 41 88 94 88c32 0 60 -12 87 -27c27 -13 51 -27 78 -27c41 0 50 34 55 54h34c-3 -23 -12 -44 -27 -61c-15 -16 -34 -27 -59 -27c-35 0 -64 14 -91 27c-27 15 -52 27 -80 27c-32 0 -54 -26 -57 -54z" />
    <glyph glyph-name="macron" unicode="&#xaf;" 
d="M-108 653v34h382v-34h-382z" />
    <glyph glyph-name="breve" unicode="&#x2d8;" 
d="M-75 729h34c15 -67 61 -83 124 -83s109 16 124 83h34c-11 -87 -78 -117 -158 -117s-147 30 -158 117z" />
    <glyph glyph-name="dotaccent" unicode="&#x2d9;" 
d="M60 617v106h46v-106h-46z" />
    <glyph glyph-name="dieresis" unicode="&#xa8;" 
d="M166 617v106h46v-106h-46zM-46 617v106h46v-106h-46z" />
    <glyph glyph-name="ring" unicode="&#x2da;" 
d="M7 700c0 -43 33 -76 76 -76s76 33 76 76s-33 76 -76 76s-76 -33 -76 -76zM-27 700c0 61 49 110 110 110s110 -49 110 -110s-49 -110 -110 -110s-110 49 -110 110z" />
    <glyph glyph-name="cedilla" unicode="&#xb8;" 
d="M17 -76l63 76h34l-51 -55l2 -2c19 4 33 6 44 6c40 0 85 -20 85 -63c0 -56 -62 -76 -111 -76c-33 0 -80 9 -111 18l10 28c24 -9 65 -18 90 -18c18 0 82 0 82 45c0 31 -36 38 -61 38c-29 0 -44 -5 -59 -12z" />
    <glyph glyph-name="hungarumlaut" unicode="&#x2dd;" 
d="M258 741h58l-157 -142h-45zM64 741h58l-157 -142h-45z" />
    <glyph glyph-name="ogonek" unicode="&#x2db;" 
d="M211 -148l12 -25c-23 -9 -64 -17 -103 -17c-65 0 -95 29 -95 72c0 32 20 58 44 78c25 20 44 31 60 40h32c-36 -25 -96 -66 -96 -112c0 -37 24 -50 65 -50c35 0 57 5 81 14z" />
    <glyph glyph-name="caron" unicode="&#x2c7;" 
d="M213 741h53l-155 -142h-56l-155 142h53l130 -114z" />
    <glyph glyph-name="emdash" unicode="&#x2014;" horiz-adv-x="1000" 
d="M0 253v34h1000v-34h-1000z" />
    <glyph glyph-name="AE" unicode="&#xc6;" horiz-adv-x="1056" 
d="M457 674l-243 -377h300v377h-57zM-33 0l464 714h601v-40h-472v-284h451v-40h-451v-310h478v-40h-524v257h-326l-166 -257h-55z" />
    <glyph glyph-name="ordfeminine" unicode="&#xaa;" horiz-adv-x="385" 
d="M340 633v-164c0 -23 -1 -39 22 -39c9 0 18 1 29 4v-28c-12 -3 -15 -3 -18 -3h-6c-3 0 -8 0 -16 -1c-45 0 -45 27 -45 62h-2c-37 -66 -107 -74 -150 -74c-114 0 -137 53 -137 97c0 56 43 83 123 90l112 8c31 3 54 9 54 36c0 33 -8 71 -115 71c-75 0 -125 -20 -125 -77h-34
c0 77 72 105 149 105c81 0 159 -11 159 -87zM306 521v53c-7 -5 -21 -14 -56 -17l-113 -8c-61 -4 -86 -28 -86 -64c0 -32 20 -67 105 -67c60 0 150 28 150 103z" />
    <glyph glyph-name="Lslash" unicode="&#x141;" horiz-adv-x="574" 
d="M60 0v237l-60 -48v46l60 48v431h46v-394l258 208v-46l-258 -208v-234h468v-40h-514z" />
    <glyph glyph-name="Oslash" unicode="&#xd8;" horiz-adv-x="816" 
d="M658 584l-478 -476c56 -52 132 -84 228 -84c215 0 333 162 333 333c0 84 -27 164 -83 227zM158 131l478 475c-56 51 -131 84 -228 84c-215 0 -333 -162 -333 -333c0 -84 28 -166 83 -226zM33 6l93 93c-72 80 -97 181 -97 258c0 139 89 373 379 373c117 0 200 -37 260 -93
l93 93l22 -22l-94 -93c71 -77 98 -184 98 -258c0 -139 -90 -373 -379 -373c-117 0 -200 37 -260 92l-93 -92z" />
    <glyph glyph-name="OE" unicode="&#x152;" horiz-adv-x="1167" 
d="M678 350v-310h471v-40h-517v76c-63 -68 -147 -92 -236 -92c-218 0 -362 139 -362 375c0 232 158 371 362 371c88 0 172 -20 236 -84v68h511v-40h-465v-284h444v-40h-444zM632 140v438c0 41 -92 112 -232 112c-206 0 -320 -142 -320 -331c0 -168 83 -335 320 -335
c148 0 232 82 232 116z" />
    <glyph glyph-name="ordmasculine" unicode="&#xba;" horiz-adv-x="410" 
d="M17 555c0 108 86 165 188 165s188 -57 188 -165s-86 -165 -188 -165s-188 57 -188 165zM51 555c0 -68 52 -137 154 -137c100 0 154 69 154 137s-54 137 -154 137c-102 0 -154 -69 -154 -137z" />
    <glyph glyph-name="ae" unicode="&#xe6;" horiz-adv-x="1055" 
d="M476 192v94h-2c-11 -12 -38 -24 -82 -27l-173 -12c-85 -5 -147 -31 -147 -107c0 -104 106 -116 167 -116c102 0 237 45 237 168zM516 286h470c-19 140 -118 202 -235 202c-133 0 -215 -79 -235 -202zM1038 246h-522c3 -128 89 -222 244 -222c160 0 199 101 218 146h46
c-43 -129 -132 -186 -269 -186c-101 0 -212 36 -255 157h-2c-27 -93 -119 -157 -262 -157c-44 0 -210 0 -210 156c0 104 89 142 193 147l179 12c53 3 78 11 78 73c0 69 -39 116 -190 116c-135 0 -178 -42 -191 -134h-46c16 129 84 174 238 174c115 0 216 -21 229 -136h2
c33 84 121 136 238 136c179 0 279 -118 282 -282z" />
    <glyph glyph-name="dotlessi" unicode="&#x131;" 
d="M60 0v512h46v-512h-46z" />
    <glyph glyph-name="lslash" unicode="&#x142;" 
d="M60 0v328l-60 -63v45l60 63v341h46v-293l60 63v-45l-60 -63v-376h-46z" />
    <glyph glyph-name="oslash" unicode="&#xf8;" horiz-adv-x="630" 
d="M29 0l71 68c-48 49 -74 116 -74 188c0 143 106 272 289 272c81 0 147 -25 196 -66l72 69l18 -19l-71 -68c48 -51 74 -116 74 -188c0 -145 -106 -272 -289 -272c-83 0 -149 26 -196 66l-72 -69zM499 414l-349 -334c41 -35 94 -56 165 -56c163 0 243 116 243 232
c0 59 -20 115 -59 158zM131 98l349 334c-39 35 -93 56 -165 56c-163 0 -243 -116 -243 -232c0 -60 20 -115 59 -158z" />
    <glyph glyph-name="oe" unicode="&#x153;" horiz-adv-x="1074" 
d="M521 256c0 140 -81 232 -224 232c-140 0 -225 -92 -225 -232c0 -138 82 -232 225 -232c140 0 224 91 224 232zM996 165h46c-24 -115 -129 -181 -260 -181c-109 0 -215 50 -242 158h-2c-41 -108 -124 -158 -245 -158c-163 0 -267 108 -267 272c0 160 111 272 271 272
c116 0 205 -52 244 -159h2c48 112 138 159 239 159c176 0 261 -116 266 -282h-487c0 -136 82 -222 221 -222c109 0 187 44 214 141zM561 286h441c-16 131 -88 202 -220 202c-129 0 -221 -99 -221 -202z" />
    <glyph glyph-name="germandbls" unicode="&#xdf;" horiz-adv-x="593" 
d="M102 0h-46v522c0 147 91 206 232 206c136 0 243 -45 243 -176c0 -60 -31 -136 -142 -152v-2c120 -8 178 -85 178 -193c0 -118 -78 -215 -239 -215c-37 0 -64 3 -79 10v40c12 -4 42 -10 82 -10c98 0 190 43 190 184c0 118 -86 161 -223 161h-37v40h30
c118 0 194 42 194 137c0 48 -26 136 -192 136c-141 0 -191 -65 -191 -165v-523z" />
    <glyph glyph-name="onesuperior" unicode="&#xb9;" horiz-adv-x="388" 
d="M201 286v369c-41 -35 -97 -50 -145 -55v28c48 3 127 33 148 80h31v-422h-34z" />
    <glyph glyph-name="logicalnot" unicode="&#xac;" horiz-adv-x="600" 
d="M513 108v222h-466v40h506v-262h-40z" />
    <glyph glyph-name="mu" unicode="&#xb5;" horiz-adv-x="611" 
d="M555 512v-512h-46v102h-2c-32 -61 -100 -118 -216 -118c-115 0 -163 43 -187 80h-2v-266h-46v714h46v-314c0 -104 39 -174 190 -174c152 0 217 93 217 189v299h46z" />
    <glyph glyph-name="trademark" unicode="&#x2122;" horiz-adv-x="990" 
d="M832 302v378h-2l-167 -378h-18l-167 378h-2v-378h-34v412h58l154 -346l154 346h58v-412h-34zM187 302v378h-143v34h320v-34h-143v-378h-34z" />
    <glyph glyph-name="Eth" unicode="&#xd0;" horiz-adv-x="759" 
d="M106 674v-284h266v-40h-266v-310h289c157 0 273 97 273 317c0 226 -115 317 -284 317h-278zM60 0v350h-60v40h60v324h334c169 0 320 -81 320 -357c0 -209 -106 -357 -328 -357h-326z" />
    <glyph glyph-name="onehalf" unicode="&#xbd;" horiz-adv-x="972" 
d="M909 28v-28h-345c11 88 52 109 148 160c95 50 152 71 152 144c0 69 -63 94 -122 94c-96 0 -136 -49 -136 -121h-34c0 104 57 149 170 149c77 0 156 -32 156 -122c0 -82 -60 -115 -165 -166c-69 -35 -120 -63 -135 -110h311zM176 286v369c-41 -35 -97 -50 -145 -55v28
c48 3 127 33 148 80h31v-422h-34zM203 -16l457 736h40l-457 -736h-40z" />
    <glyph glyph-name="plusminus" unicode="&#xb1;" horiz-adv-x="600" 
d="M47 0v40h506v-40h-506zM47 278v40h233v188h40v-188h233v-40h-233v-188h-40v188h-233z" />
    <glyph glyph-name="Thorn" unicode="&#xde;" horiz-adv-x="667" 
d="M106 524v-320h318c88 0 179 35 179 160c0 160 -129 160 -190 160h-307zM60 0v714h46v-150h326c100 0 217 -35 217 -198c0 -120 -68 -202 -224 -202h-319v-164h-46z" />
    <glyph glyph-name="onequarter" unicode="&#xbc;" horiz-adv-x="972" 
d="M203 -16l457 736h40l-457 -736h-40zM176 286v369c-41 -35 -97 -50 -145 -55v28c48 3 127 33 148 80h31v-422h-34zM799 137v245l-211 -245h211zM554 142l245 280h34v-285h89v-28h-89v-109h-34v109h-245v33z" />
    <glyph glyph-name="divide" unicode="&#xf7;" horiz-adv-x="600" 
d="M247 53c0 29 24 53 53 53s53 -24 53 -53s-24 -53 -53 -53s-53 24 -53 53zM247 453c0 29 24 53 53 53s53 -24 53 -53s-24 -53 -53 -53s-53 24 -53 53zM47 233v40h506v-40h-506z" />
    <glyph glyph-name="brokenbar" unicode="&#xa6;" horiz-adv-x="222" 
d="M91 460v270h40v-270h-40zM91 -16v270h40v-270h-40z" />
    <glyph glyph-name="degree" unicode="&#xb0;" horiz-adv-x="400" 
d="M89 575c0 -60 51 -111 111 -111s111 51 111 111s-51 111 -111 111s-111 -51 -111 -111zM55 575c0 80 65 145 145 145s145 -65 145 -145s-65 -145 -145 -145s-145 65 -145 145z" />
    <glyph glyph-name="thorn" unicode="&#xfe;" horiz-adv-x="630" 
d="M336 488c-192 0 -240 -135 -240 -227c0 -180 130 -237 234 -237c118 0 228 74 228 230c0 147 -95 234 -222 234zM56 -202v916h46v-314h2c24 61 95 128 227 128c180 0 273 -129 273 -273c0 -163 -117 -271 -273 -271c-126 0 -198 69 -227 125h-2v-311h-46z" />
    <glyph glyph-name="threequarters" unicode="&#xbe;" horiz-adv-x="972" 
d="M207 500v28c53 0 154 1 154 81c0 67 -69 83 -122 83c-75 0 -138 -30 -138 -114h-34c3 105 71 142 178 142c64 0 150 -24 150 -111c0 -63 -45 -85 -101 -92v-2c64 0 113 -40 113 -112c0 -104 -94 -129 -178 -129c-99 0 -175 39 -175 154h34c0 -96 69 -126 148 -126
c62 0 137 25 137 102c0 93 -102 96 -166 96zM273 -16l457 736h40l-457 -736h-40zM799 137v247l-211 -247h211zM554 142l245 282h34v-287h89v-28h-89v-109h-34v109h-245v33z" />
    <glyph glyph-name="twosuperior" unicode="&#xb2;" horiz-adv-x="421" 
d="M383 322v-28h-345c11 88 52 109 148 160c95 50 152 71 152 144c0 69 -63 94 -122 94c-96 0 -136 -49 -136 -121h-34c0 104 57 149 170 149c77 0 156 -32 156 -122c0 -82 -60 -115 -165 -166c-69 -35 -120 -63 -135 -110h311z" />
    <glyph glyph-name="registered" unicode="&#xae;" horiz-adv-x="800" 
d="M27 357c0 205 168 373 373 373s373 -168 373 -373s-168 -373 -373 -373s-373 168 -373 373zM67 357c0 -184 149 -333 333 -333s333 149 333 333s-149 333 -333 333s-333 -149 -333 -333zM296 544v-172h94c82 0 140 8 140 84c0 68 -44 88 -104 88h-130zM256 136v442h170
c87 0 144 -26 144 -122c0 -77 -44 -107 -113 -118l133 -202h-46l-133 202h-115v-202h-40z" />
    <glyph glyph-name="minus" unicode="&#x2212;" horiz-adv-x="600" 
d="M47 233v40h506v-40h-506z" />
    <glyph glyph-name="eth" unicode="&#xf0;" horiz-adv-x="630" 
d="M26 256c0 143 105 272 278 272c95 0 180 -29 240 -120l2 2c-40 87 -88 154 -149 203c-19 15 -40 29 -61 42l-118 -58l-27 20l112 56c-3 1 -6 3 -9 4c-38 18 -80 33 -127 45l27 31c54 -13 104 -33 151 -59l118 59l23 -23l-109 -54c42 -27 79 -58 110 -95
c73 -83 117 -189 117 -313c0 -166 -106 -284 -289 -284s-289 127 -289 272zM72 256c0 -116 80 -232 243 -232s243 116 243 232s-80 232 -243 232s-243 -116 -243 -232z" />
    <glyph glyph-name="multiply" unicode="&#xd7;" horiz-adv-x="600" 
d="M79 59l195 194l-195 195l26 27l195 -196l194 196l27 -27l-195 -195l195 -194l-27 -27l-194 195l-195 -195z" />
    <glyph glyph-name="threesuperior" unicode="&#xb3;" horiz-adv-x="421" 
d="M187 500v28c53 0 154 1 154 81c0 67 -69 83 -122 83c-75 0 -138 -30 -138 -114h-34c3 105 71 142 178 142c64 0 150 -24 150 -111c0 -63 -45 -85 -101 -92v-2c64 0 113 -40 113 -112c0 -104 -94 -129 -178 -129c-99 0 -175 39 -175 154h34c0 -96 69 -126 148 -126
c62 0 137 25 137 102c0 93 -102 96 -166 96z" />
    <glyph glyph-name="copyright" unicode="&#xa9;" horiz-adv-x="800" 
d="M27 357c0 205 168 373 373 373s373 -168 373 -373s-168 -373 -373 -373s-373 168 -373 373zM602 438h-40c-15 75 -69 121 -150 121c-117 0 -186 -85 -186 -201c0 -111 71 -204 186 -204c81 0 135 47 150 127h40c-13 -97 -95 -161 -190 -161c-137 0 -226 102 -226 238
c0 137 85 235 226 235c97 0 174 -57 190 -155zM67 357c0 -184 149 -333 333 -333s333 149 333 333s-149 333 -333 333s-333 -149 -333 -333z" />
    <glyph glyph-name="Aacute" unicode="&#xc1;" horiz-adv-x="686" 
d="M343 662l-179 -392h358zM-11 0l328 714h52l328 -714h-52l-105 230h-394l-105 -230h-52zM464 910h58l-157 -142h-45z" />
    <glyph glyph-name="Acircumflex" unicode="&#xc2;" horiz-adv-x="686" 
d="M343 662l-179 -392h358zM-11 0l328 714h52l328 -714h-52l-105 230h-394l-105 -230h-52zM527 768h-53l-130 114l-130 -114h-53l155 142h56z" />
    <glyph glyph-name="Adieresis" unicode="&#xc4;" horiz-adv-x="686" 
d="M343 662l-179 -392h358zM-11 0l328 714h52l328 -714h-52l-105 230h-394l-105 -230h-52zM427 786v106h46v-106h-46zM215 786v106h46v-106h-46z" />
    <glyph glyph-name="Agrave" unicode="&#xc0;" horiz-adv-x="686" 
d="M343 662l-179 -392h358zM-11 0l328 714h52l328 -714h-52l-105 230h-394l-105 -230h-52zM320 768l-157 142h58l144 -142h-45z" />
    <glyph glyph-name="Aring" unicode="&#xc5;" horiz-adv-x="686" 
d="M343 662l-179 -392h358zM-11 0l328 714h52l328 -714h-52l-105 230h-394l-105 -230h-52zM267 860c0 -43 33 -76 76 -76s76 33 76 76s-33 76 -76 76s-76 -33 -76 -76zM233 860c0 61 49 110 110 110s110 -49 110 -110s-49 -110 -110 -110s-110 49 -110 110z" />
    <glyph glyph-name="Atilde" unicode="&#xc3;" horiz-adv-x="686" 
d="M343 662l-179 -392h358zM-11 0l328 714h52l328 -714h-52l-105 230h-394l-105 -230h-52zM204 795h-34c5 44 41 88 94 88c32 0 60 -12 87 -27c27 -13 51 -27 78 -27c41 0 50 34 55 54h34c-3 -23 -12 -44 -27 -61c-15 -16 -34 -27 -59 -27c-35 0 -64 14 -91 27
c-27 15 -52 27 -80 27c-32 0 -54 -26 -57 -54z" />
    <glyph glyph-name="Ccedilla" unicode="&#xc7;" horiz-adv-x="796" 
d="M714 271h46c-12 -103 -83 -210 -209 -262c-40 -16 -86 -24 -137 -25l-36 -39l2 -2c19 4 33 6 44 6c40 0 85 -20 85 -63c0 -56 -62 -76 -111 -76c-33 0 -80 9 -111 18l10 28c24 -9 65 -18 90 -18c18 0 82 0 82 45c0 31 -36 38 -61 38c-29 0 -44 -5 -59 -12l-17 15l50 61
c-44 2 -85 10 -124 24c-137 49 -229 171 -229 348c0 173 118 373 380 373c172 0 302 -80 339 -240h-46c-35 137 -158 200 -293 200c-204 0 -334 -153 -334 -333c0 -179 115 -333 334 -333c158 0 278 92 305 247z" />
    <glyph glyph-name="Eacute" unicode="&#xc9;" horiz-adv-x="648" 
d="M60 0v714h564v-40h-518v-284h497v-40h-497v-310h524v-40h-570zM453 910h58l-157 -142h-45z" />
    <glyph glyph-name="Ecircumflex" unicode="&#xca;" horiz-adv-x="648" 
d="M60 0v714h564v-40h-518v-284h497v-40h-497v-310h524v-40h-570zM532 768h-53l-130 114l-130 -114h-53l155 142h56z" />
    <glyph glyph-name="Edieresis" unicode="&#xcb;" horiz-adv-x="648" 
d="M60 0v714h564v-40h-518v-284h497v-40h-497v-310h524v-40h-570zM422 786v106h46v-106h-46zM210 786v106h46v-106h-46z" />
    <glyph glyph-name="Egrave" unicode="&#xc8;" horiz-adv-x="648" 
d="M60 0v714h564v-40h-518v-284h497v-40h-497v-310h524v-40h-570zM352 768l-157 142h58l144 -142h-45z" />
    <glyph glyph-name="Iacute" unicode="&#xcd;" 
d="M60 0v714h46v-714h-46zM205 910h58l-157 -142h-45z" />
    <glyph glyph-name="Icircumflex" unicode="&#xce;" 
d="M60 0v714h46v-714h-46zM266 768h-53l-130 114l-130 -114h-53l155 142h56z" />
    <glyph glyph-name="Idieresis" unicode="&#xcf;" 
d="M60 0v714h46v-714h-46zM166 786v106h46v-106h-46zM-46 786v106h46v-106h-46z" />
    <glyph glyph-name="Igrave" unicode="&#xcc;" 
d="M60 0v714h46v-714h-46zM63 768l-157 142h58l144 -142h-45z" />
    <glyph glyph-name="Ntilde" unicode="&#xd1;" horiz-adv-x="759" 
d="M60 0v714h58l533 -650h2v650h46v-714h-58l-533 650h-2v-650h-46zM245 795h-34c5 44 41 88 94 88c32 0 60 -12 87 -27c27 -13 51 -27 78 -27c41 0 50 34 55 54h34c-3 -23 -12 -44 -27 -61c-15 -16 -34 -27 -59 -27c-35 0 -64 14 -91 27c-27 15 -52 27 -80 27
c-32 0 -54 -26 -57 -54z" />
    <glyph glyph-name="Oacute" unicode="&#xd3;" horiz-adv-x="816" 
d="M29 357c0 139 89 373 379 373c289 0 379 -234 379 -373s-90 -373 -379 -373s-379 234 -379 373zM75 357c0 -171 118 -333 333 -333s333 162 333 333s-118 333 -333 333s-333 -162 -333 -333zM508 910h58l-157 -142h-45z" />
    <glyph glyph-name="Ocircumflex" unicode="&#xd4;" horiz-adv-x="816" 
d="M29 357c0 139 89 373 379 373c289 0 379 -234 379 -373s-90 -373 -379 -373s-379 234 -379 373zM75 357c0 -171 118 -333 333 -333s333 162 333 333s-118 333 -333 333s-333 -162 -333 -333zM594 768h-53l-130 114l-130 -114h-53l155 142h56z" />
    <glyph glyph-name="Odieresis" unicode="&#xd6;" horiz-adv-x="816" 
d="M29 357c0 139 89 373 379 373c289 0 379 -234 379 -373s-90 -373 -379 -373s-379 234 -379 373zM75 357c0 -171 118 -333 333 -333s333 162 333 333s-118 333 -333 333s-333 -162 -333 -333zM491 786v106h46v-106h-46zM279 786v106h46v-106h-46z" />
    <glyph glyph-name="Ograve" unicode="&#xd2;" horiz-adv-x="816" 
d="M29 357c0 139 89 373 379 373c289 0 379 -234 379 -373s-90 -373 -379 -373s-379 234 -379 373zM75 357c0 -171 118 -333 333 -333s333 162 333 333s-118 333 -333 333s-333 -162 -333 -333zM418 768l-157 142h58l144 -142h-45z" />
    <glyph glyph-name="Otilde" unicode="&#xd5;" horiz-adv-x="816" 
d="M29 357c0 139 89 373 379 373c289 0 379 -234 379 -373s-90 -373 -379 -373s-379 234 -379 373zM75 357c0 -171 118 -333 333 -333s333 162 333 333s-118 333 -333 333s-333 -162 -333 -333zM270 795h-34c5 44 41 88 94 88c32 0 60 -12 87 -27c27 -13 51 -27 78 -27
c41 0 50 34 55 54h34c-3 -23 -12 -44 -27 -61c-15 -16 -34 -27 -59 -27c-35 0 -64 14 -91 27c-27 15 -52 27 -80 27c-32 0 -54 -26 -57 -54z" />
    <glyph glyph-name="Scaron" unicode="&#x160;" horiz-adv-x="667" 
d="M28 236h46c1 -133 82 -212 274 -212c176 0 239 75 239 159c0 81 -39 115 -188 147l-133 28c-157 32 -216 80 -216 187s94 185 270 185c180 0 294 -66 299 -218h-46c-5 82 -53 178 -240 178c-174 0 -231 -64 -231 -146c0 -76 33 -114 169 -141l147 -29
c143 -29 221 -74 221 -188c0 -97 -64 -202 -287 -202c-235 0 -324 100 -324 252zM462 910h53l-155 -142h-56l-155 142h53l130 -114z" />
    <glyph glyph-name="Uacute" unicode="&#xda;" horiz-adv-x="740" 
d="M54 264v450h46v-448c0 -152 73 -242 270 -242s270 90 270 242v448h46v-450c0 -185 -105 -280 -316 -280s-316 95 -316 280zM465 910h58l-157 -142h-45z" />
    <glyph glyph-name="Ucircumflex" unicode="&#xdb;" horiz-adv-x="740" 
d="M54 264v450h46v-448c0 -152 73 -242 270 -242s270 90 270 242v448h46v-450c0 -185 -105 -280 -316 -280s-316 95 -316 280zM551 768h-53l-130 114l-130 -114h-53l155 142h56z" />
    <glyph glyph-name="Udieresis" unicode="&#xdc;" horiz-adv-x="740" 
d="M54 264v450h46v-448c0 -152 73 -242 270 -242s270 90 270 242v448h46v-450c0 -185 -105 -280 -316 -280s-316 95 -316 280zM452 786v106h46v-106h-46zM240 786v106h46v-106h-46z" />
    <glyph glyph-name="Ugrave" unicode="&#xd9;" horiz-adv-x="740" 
d="M54 264v450h46v-448c0 -152 73 -242 270 -242s270 90 270 242v448h46v-450c0 -185 -105 -280 -316 -280s-316 95 -316 280zM372 768l-157 142h58l144 -142h-45z" />
    <glyph glyph-name="Yacute" unicode="&#xdd;" horiz-adv-x="668" 
d="M311 300l-331 414h64l290 -371l296 371h58l-331 -414v-300h-46v300zM467 910h58l-157 -142h-45z" />
    <glyph glyph-name="Ydieresis" unicode="&#x178;" horiz-adv-x="668" 
d="M311 300l-331 414h64l290 -371l296 371h58l-331 -414v-300h-46v300zM418 786v106h46v-106h-46zM206 786v106h46v-106h-46z" />
    <glyph glyph-name="Zcaron" unicode="&#x17d;" horiz-adv-x="611" 
d="M-5 0v49l561 625h-528v40h580v-46l-561 -628h569v-40h-621zM441 910h53l-155 -142h-56l-155 142h53l130 -114z" />
    <glyph glyph-name="aacute" unicode="&#xe1;" horiz-adv-x="593" 
d="M95 354h-46c16 129 84 174 238 174c148 0 235 -35 235 -150v-287c0 -38 -1 -61 34 -61c14 0 29 3 45 8v-40c-15 -5 -33 -8 -56 -8c-63 0 -63 44 -63 112h-2c-56 -105 -177 -118 -244 -118c-44 0 -210 0 -210 156c0 104 89 142 193 147l179 12c53 3 78 11 78 73
c0 69 -39 116 -190 116c-135 0 -178 -42 -191 -134zM476 192v94h-2c-11 -12 -38 -24 -82 -27l-173 -12c-85 -5 -147 -31 -147 -107c0 -104 106 -116 167 -116c102 0 237 45 237 168zM396 741h58l-157 -142h-45z" />
    <glyph glyph-name="acircumflex" unicode="&#xe2;" horiz-adv-x="593" 
d="M95 354h-46c16 129 84 174 238 174c148 0 235 -35 235 -150v-287c0 -38 -1 -61 34 -61c14 0 29 3 45 8v-40c-15 -5 -33 -8 -56 -8c-63 0 -63 44 -63 112h-2c-56 -105 -177 -118 -244 -118c-44 0 -210 0 -210 156c0 104 89 142 193 147l179 12c53 3 78 11 78 73
c0 69 -39 116 -190 116c-135 0 -178 -42 -191 -134zM476 192v94h-2c-11 -12 -38 -24 -82 -27l-173 -12c-85 -5 -147 -31 -147 -107c0 -104 106 -116 167 -116c102 0 237 45 237 168zM477 599h-53l-130 114l-130 -114h-53l155 142h56z" />
    <glyph glyph-name="adieresis" unicode="&#xe4;" horiz-adv-x="593" 
d="M95 354h-46c16 129 84 174 238 174c148 0 235 -35 235 -150v-287c0 -38 -1 -61 34 -61c14 0 29 3 45 8v-40c-15 -5 -33 -8 -56 -8c-63 0 -63 44 -63 112h-2c-56 -105 -177 -118 -244 -118c-44 0 -210 0 -210 156c0 104 89 142 193 147l179 12c53 3 78 11 78 73
c0 69 -39 116 -190 116c-135 0 -178 -42 -191 -134zM476 192v94h-2c-11 -12 -38 -24 -82 -27l-173 -12c-85 -5 -147 -31 -147 -107c0 -104 106 -116 167 -116c102 0 237 45 237 168zM376 617v106h46v-106h-46zM164 617v106h46v-106h-46z" />
    <glyph glyph-name="agrave" unicode="&#xe0;" horiz-adv-x="593" 
d="M95 354h-46c16 129 84 174 238 174c148 0 235 -35 235 -150v-287c0 -38 -1 -61 34 -61c14 0 29 3 45 8v-40c-15 -5 -33 -8 -56 -8c-63 0 -63 44 -63 112h-2c-56 -105 -177 -118 -244 -118c-44 0 -210 0 -210 156c0 104 89 142 193 147l179 12c53 3 78 11 78 73
c0 69 -39 116 -190 116c-135 0 -178 -42 -191 -134zM476 192v94h-2c-11 -12 -38 -24 -82 -27l-173 -12c-85 -5 -147 -31 -147 -107c0 -104 106 -116 167 -116c102 0 237 45 237 168zM316 599l-157 142h58l144 -142h-45z" />
    <glyph glyph-name="aring" unicode="&#xe5;" horiz-adv-x="593" 
d="M95 354h-46c16 129 84 174 238 174c148 0 235 -35 235 -150v-287c0 -38 -1 -61 34 -61c14 0 29 3 45 8v-40c-15 -5 -33 -8 -56 -8c-63 0 -63 44 -63 112h-2c-56 -105 -177 -118 -244 -118c-44 0 -210 0 -210 156c0 104 89 142 193 147l179 12c53 3 78 11 78 73
c0 69 -39 116 -190 116c-135 0 -178 -42 -191 -134zM476 192v94h-2c-11 -12 -38 -24 -82 -27l-173 -12c-85 -5 -147 -31 -147 -107c0 -104 106 -116 167 -116c102 0 237 45 237 168zM214 700c0 -43 33 -76 76 -76s76 33 76 76s-33 76 -76 76s-76 -33 -76 -76zM180 700
c0 61 49 110 110 110s110 -49 110 -110s-49 -110 -110 -110s-110 49 -110 110z" />
    <glyph glyph-name="atilde" unicode="&#xe3;" horiz-adv-x="593" 
d="M95 354h-46c16 129 84 174 238 174c148 0 235 -35 235 -150v-287c0 -38 -1 -61 34 -61c14 0 29 3 45 8v-40c-15 -5 -33 -8 -56 -8c-63 0 -63 44 -63 112h-2c-56 -105 -177 -118 -244 -118c-44 0 -210 0 -210 156c0 104 89 142 193 147l179 12c53 3 78 11 78 73
c0 69 -39 116 -190 116c-135 0 -178 -42 -191 -134zM476 192v94h-2c-11 -12 -38 -24 -82 -27l-173 -12c-85 -5 -147 -31 -147 -107c0 -104 106 -116 167 -116c102 0 237 45 237 168zM155 626h-34c5 44 41 88 94 88c32 0 60 -12 87 -27c27 -13 51 -27 78 -27
c41 0 50 34 55 54h34c-3 -23 -12 -44 -27 -61c-15 -16 -34 -27 -59 -27c-35 0 -64 14 -91 27c-27 15 -52 27 -80 27c-32 0 -54 -26 -57 -54z" />
    <glyph glyph-name="ccedilla" unicode="&#xe7;" horiz-adv-x="611" 
d="M578 351h-46c-5 64 -94 137 -217 137c-163 0 -243 -115 -243 -237c0 -83 58 -227 243 -227c104 0 200 49 224 155h46c-20 -100 -90 -161 -178 -183c-27 -7 -56 -11 -86 -12l-36 -39l2 -2c19 4 33 6 44 6c40 0 85 -20 85 -63c0 -56 -62 -76 -111 -76c-33 0 -80 9 -111 18
l10 28c24 -9 65 -18 90 -18c18 0 82 0 82 45c0 31 -36 38 -61 38c-29 0 -44 -5 -59 -12l-17 15l50 61c-32 2 -62 8 -90 18c-105 40 -173 127 -173 248c0 180 132 277 289 277c156 0 258 -90 263 -177z" />
    <glyph glyph-name="eacute" unicode="&#xe9;" horiz-adv-x="611" 
d="M72 286h470c-19 140 -118 202 -235 202c-133 0 -215 -79 -235 -202zM594 246h-522c3 -128 89 -222 244 -222c160 0 199 101 218 146h46c-43 -129 -132 -186 -269 -186c-175 0 -285 105 -285 276c0 107 67 268 286 268c179 0 279 -118 282 -282zM406 741h58l-157 -142h-45
z" />
    <glyph glyph-name="ecircumflex" unicode="&#xea;" horiz-adv-x="611" 
d="M72 286h470c-19 140 -118 202 -235 202c-133 0 -215 -79 -235 -202zM594 246h-522c3 -128 89 -222 244 -222c160 0 199 101 218 146h46c-43 -129 -132 -186 -269 -186c-175 0 -285 105 -285 276c0 107 67 268 286 268c179 0 279 -118 282 -282zM496 599h-53l-130 114
l-130 -114h-53l155 142h56z" />
    <glyph glyph-name="edieresis" unicode="&#xeb;" horiz-adv-x="611" 
d="M72 286h470c-19 140 -118 202 -235 202c-133 0 -215 -79 -235 -202zM594 246h-522c3 -128 89 -222 244 -222c160 0 199 101 218 146h46c-43 -129 -132 -186 -269 -186c-175 0 -285 105 -285 276c0 107 67 268 286 268c179 0 279 -118 282 -282zM397 617v106h46v-106h-46z
M185 617v106h46v-106h-46z" />
    <glyph glyph-name="egrave" unicode="&#xe8;" horiz-adv-x="611" 
d="M72 286h470c-19 140 -118 202 -235 202c-133 0 -215 -79 -235 -202zM594 246h-522c3 -128 89 -222 244 -222c160 0 199 101 218 146h46c-43 -129 -132 -186 -269 -186c-175 0 -285 105 -285 276c0 107 67 268 286 268c179 0 279 -118 282 -282zM327 599l-157 142h58
l144 -142h-45z" />
    <glyph glyph-name="iacute" unicode="&#xed;" 
d="M60 0v512h46v-512h-46zM206 741h58l-157 -142h-45z" />
    <glyph glyph-name="icircumflex" unicode="&#xee;" 
d="M60 0v512h46v-512h-46zM266 599h-53l-130 114l-130 -114h-53l155 142h56z" />
    <glyph glyph-name="idieresis" unicode="&#xef;" 
d="M60 0v512h46v-512h-46zM166 617v106h46v-106h-46zM-46 617v106h46v-106h-46z" />
    <glyph glyph-name="igrave" unicode="&#xec;" 
d="M60 0v512h46v-512h-46zM63 599l-157 142h58l144 -142h-45z" />
    <glyph glyph-name="ntilde" unicode="&#xf1;" horiz-adv-x="611" 
d="M56 0v512h46v-102h2c32 61 100 118 216 118c235 0 235 -151 235 -212v-316h-46v314c0 104 -39 174 -190 174c-152 0 -217 -93 -217 -189v-299h-46zM166 626h-34c5 44 41 88 94 88c32 0 60 -12 87 -27c27 -13 51 -27 78 -27c41 0 50 34 55 54h34c-3 -23 -12 -44 -27 -61
c-15 -16 -34 -27 -59 -27c-35 0 -64 14 -91 27c-27 15 -52 27 -80 27c-32 0 -54 -26 -57 -54z" />
    <glyph glyph-name="oacute" unicode="&#xf3;" horiz-adv-x="630" 
d="M26 256c0 143 106 272 289 272s289 -129 289 -272c0 -145 -106 -272 -289 -272s-289 127 -289 272zM72 256c0 -116 80 -232 243 -232s243 116 243 232s-80 232 -243 232s-243 -116 -243 -232zM406 741h58l-157 -142h-45z" />
    <glyph glyph-name="ocircumflex" unicode="&#xf4;" horiz-adv-x="630" 
d="M26 256c0 143 106 272 289 272s289 -129 289 -272c0 -145 -106 -272 -289 -272s-289 127 -289 272zM72 256c0 -116 80 -232 243 -232s243 116 243 232s-80 232 -243 232s-243 -116 -243 -232zM500 599h-53l-130 114l-130 -114h-53l155 142h56z" />
    <glyph glyph-name="odieresis" unicode="&#xf6;" horiz-adv-x="630" 
d="M26 256c0 143 106 272 289 272s289 -129 289 -272c0 -145 -106 -272 -289 -272s-289 127 -289 272zM72 256c0 -116 80 -232 243 -232s243 116 243 232s-80 232 -243 232s-243 -116 -243 -232zM401 617v106h46v-106h-46zM189 617v106h46v-106h-46z" />
    <glyph glyph-name="ograve" unicode="&#xf2;" horiz-adv-x="630" 
d="M26 256c0 143 106 272 289 272s289 -129 289 -272c0 -145 -106 -272 -289 -272s-289 127 -289 272zM72 256c0 -116 80 -232 243 -232s243 116 243 232s-80 232 -243 232s-243 -116 -243 -232zM323 599l-157 142h58l144 -142h-45z" />
    <glyph glyph-name="otilde" unicode="&#xf5;" horiz-adv-x="630" 
d="M26 256c0 143 106 272 289 272s289 -129 289 -272c0 -145 -106 -272 -289 -272s-289 127 -289 272zM72 256c0 -116 80 -232 243 -232s243 116 243 232s-80 232 -243 232s-243 -116 -243 -232zM178 626h-34c5 44 41 88 94 88c32 0 60 -12 87 -27c27 -13 51 -27 78 -27
c41 0 50 34 55 54h34c-3 -23 -12 -44 -27 -61c-15 -16 -34 -27 -59 -27c-35 0 -64 14 -91 27c-27 15 -52 27 -80 27c-32 0 -54 -26 -57 -54z" />
    <glyph glyph-name="scaron" unicode="&#x161;" horiz-adv-x="537" 
d="M496 362h-46c-7 85 -61 126 -194 126c-125 0 -167 -49 -167 -102c0 -56 42 -79 103 -87l163 -22c96 -13 161 -48 161 -140c0 -139 -158 -153 -245 -153c-141 0 -242 48 -250 176h46c5 -52 17 -136 216 -136c135 0 187 40 187 113c0 60 -43 85 -103 93l-180 24
c-64 8 -144 37 -144 129c0 58 41 145 215 145c189 0 233 -86 238 -166zM400 741h53l-155 -142h-56l-155 142h53l130 -114z" />
    <glyph glyph-name="uacute" unicode="&#xfa;" horiz-adv-x="611" 
d="M555 512v-512h-46v102h-2c-32 -61 -100 -118 -216 -118c-235 0 -235 150 -235 212v316h46v-314c0 -104 39 -174 190 -174c152 0 217 93 217 189v299h46zM405 741h58l-157 -142h-45z" />
    <glyph glyph-name="ucircumflex" unicode="&#xfb;" horiz-adv-x="611" 
d="M555 512v-512h-46v102h-2c-32 -61 -100 -118 -216 -118c-235 0 -235 150 -235 212v316h46v-314c0 -104 39 -174 190 -174c152 0 217 93 217 189v299h46zM488 599h-53l-130 114l-130 -114h-53l155 142h56z" />
    <glyph glyph-name="udieresis" unicode="&#xfc;" horiz-adv-x="611" 
d="M555 512v-512h-46v102h-2c-32 -61 -100 -118 -216 -118c-235 0 -235 150 -235 212v316h46v-314c0 -104 39 -174 190 -174c152 0 217 93 217 189v299h46zM388 617v106h46v-106h-46zM176 617v106h46v-106h-46z" />
    <glyph glyph-name="ugrave" unicode="&#xf9;" horiz-adv-x="611" 
d="M555 512v-512h-46v102h-2c-32 -61 -100 -118 -216 -118c-235 0 -235 150 -235 212v316h46v-314c0 -104 39 -174 190 -174c152 0 217 93 217 189v299h46zM303 599l-157 142h58l144 -142h-45z" />
    <glyph glyph-name="yacute" unicode="&#xfd;" horiz-adv-x="519" 
d="M246 0l-259 512h52l230 -461l211 461h52l-282 -602c-26 -55 -52 -94 -132 -94h-64v40h55c59 0 72 13 111 92zM367 741h58l-157 -142h-45z" />
    <glyph glyph-name="ydieresis" unicode="&#xff;" horiz-adv-x="519" 
d="M246 0l-259 512h52l230 -461l211 461h52l-282 -602c-26 -55 -52 -94 -132 -94h-64v40h55c59 0 72 13 111 92zM352 617v106h46v-106h-46zM140 617v106h46v-106h-46z" />
    <glyph glyph-name="zcaron" unicode="&#x17e;" horiz-adv-x="519" 
d="M12 0v46l417 426h-391v40h455v-34l-429 -438h443v-40h-495zM396 741h53l-155 -142h-56l-155 142h53l130 -114z" />
    <glyph glyph-name="Euro" unicode="&#x20ac;" horiz-adv-x="648" 
d="M638 625l-22 -42c-15 23 -40 50 -83 70c-40 19 -90 27 -135 27c-60 0 -145 -13 -204 -91c-28 -36 -51 -91 -58 -147h409l-16 -34h-398c-3 -37 -3 -75 0 -112h351l-16 -34h-331c8 -56 31 -114 63 -153c56 -70 131 -85 200 -85c52 0 98 10 137 31c35 19 68 46 93 81v-60
c-17 -19 -41 -40 -76 -59c-48 -24 -100 -33 -157 -33c-65 0 -160 12 -231 96c-41 49 -67 118 -75 182h-89l16 34h69c-3 37 -3 75 0 112h-85l16 34h74c7 60 32 135 79 187c37 42 110 91 233 91c55 0 111 -11 154 -31c41 -19 66 -44 82 -64z" />
    <glyph glyph-name="notequal" unicode="&#x2260;" horiz-adv-x="593" 
d="M542 130h-286l-76 -141l-33 18l66 123h-163v38h184l77 145h-261v38h282l77 144l32 -18l-67 -126h168v-38h-188l-78 -145h266v-38z" />
    <glyph glyph-name="infinity" unicode="&#x221e;" horiz-adv-x="722" 
d="M335 244c-46 35 -103 97 -166 97c-53 0 -86 -46 -86 -96c0 -56 33 -95 90 -95c61 0 120 54 162 94zM640 245c0 53 -33 97 -89 97c-60 0 -121 -61 -163 -98c45 -40 99 -94 163 -94c56 0 89 42 89 95zM678 247c0 -77 -49 -135 -129 -135c-75 0 -136 59 -187 107
c-60 -46 -106 -107 -189 -107c-78 0 -128 57 -128 133c0 75 50 134 126 134c75 0 139 -63 191 -110c53 45 111 111 186 111c77 0 130 -57 130 -133z" />
    <glyph glyph-name="lessequal" unicode="&#x2264;" horiz-adv-x="593" 
d="M542 -18h-492v38h492v-38zM542 63l-492 197v42l492 198v-42l-440 -177l440 -176v-42z" />
    <glyph glyph-name="greaterequal" unicode="&#x2265;" horiz-adv-x="593" 
d="M542 -18h-492v38h492v-38zM542 260l-492 -197v42l441 176l-441 177v42l492 -198v-42z" />
    <glyph glyph-name="partialdiff" unicode="&#x2202;" horiz-adv-x="469" 
d="M384 281c-40 53 -98 103 -168 103c-97 0 -148 -87 -148 -175c0 -85 51 -186 147 -186c123 0 164 161 169 258zM429 367c0 -139 -29 -379 -215 -379c-119 0 -186 114 -186 222c0 112 65 211 186 211c72 0 132 -39 175 -95c0 20 1 41 1 61c0 116 -40 296 -188 296
c-47 0 -78 -18 -114 -45l-23 29c40 35 83 54 136 54c183 0 228 -209 228 -354z" />
    <glyph glyph-name="summation" unicode="&#x2211;" horiz-adv-x="593" 
d="M561 -214h-529v37l337 466l-323 460v37h503v-40h-449l320 -457l-338 -463h479v-40z" />
    <glyph glyph-name="product" unicode="&#x220f;" horiz-adv-x="704" 
d="M624 -214h-42v960h-460v-960h-42v1000h544v-1000z" />
    <glyph glyph-name="pi" unicode="&#x3c0;" horiz-adv-x="556" 
d="M527 45v-35c-17 -8 -33 -15 -53 -15c-69 0 -69 53 -69 106v329h-281v-430h-42v430h-70v38h510v-38h-75v-342c0 -29 2 -55 38 -55c15 0 29 4 42 12z" />
    <glyph glyph-name="integral" unicode="&#x222b;" horiz-adv-x="534" 
d="M380 747c0 -17 -12 -28 -28 -28c-35 0 -29 34 -44 34c-49 0 -42 -184 -42 -210v-496c0 -77 11 -261 -106 -261c-23 0 -46 12 -46 39c0 15 13 26 28 26c24 0 27 -30 42 -30c32 0 40 98 40 158v41v492c0 77 -21 274 104 274c24 0 52 -10 52 -39z" />
    <glyph glyph-name="Omega" unicode="&#x2126;" horiz-adv-x="734" 
d="M674 0h-235v170c127 19 193 125 193 247c0 152 -119 265 -270 265c-149 0 -268 -116 -268 -265c0 -120 68 -231 194 -247v-170h-236v38h200v101c-129 38 -200 146 -200 278c0 173 140 304 311 304s311 -132 311 -304c0 -130 -70 -243 -198 -278v-101h198v-38z" />
    <glyph glyph-name="radical" unicode="&#x221a;" horiz-adv-x="469" 
d="M475 783l-213 -999h-40l-175 360l-45 -22l-15 32l78 38l171 -356l200 947h39z" />
    <glyph glyph-name="approxequal" unicode="&#x2248;" horiz-adv-x="593" 
d="M520 223h30c-11 -61 -47 -120 -116 -120c-84 0 -210 75 -282 75c-47 0 -79 -40 -87 -83h-32c14 62 44 121 117 121c86 0 205 -75 283 -75c49 0 76 38 87 82zM520 385h30c-11 -61 -47 -119 -116 -119c-84 0 -210 75 -283 75c-48 0 -78 -40 -86 -83h-32
c14 62 44 120 117 120c83 0 206 -74 283 -74c48 0 76 38 87 81z" />
    <glyph glyph-name="Delta" unicode="&#x2206;" horiz-adv-x="648" 
d="M572 41l-250 624l-248 -624h498zM635 0h-620l286 712h44z" />
    <glyph glyph-name="lozenge" unicode="&#x25ca;" horiz-adv-x="593" 
d="M441 356l-145 342l-145 -342l145 -342zM484 356l-169 -391h-39l-168 391l168 391h39z" />
    <glyph glyph-name="commaaccent" unicode="&#xf004;" horiz-adv-x="222" 
d="M91 -160l1 110h49v-105c0 -49 -26 -63 -58 -65v22c20 4 29 13 29 38h-21z" />
    <glyph glyph-name="commaaccent" unicode="&#xf6c3;" horiz-adv-x="222" 
d="M91 -160l1 110h49v-105c0 -49 -26 -63 -58 -65v22c20 4 29 13 29 38h-21z" />
    <glyph glyph-name="commaaccent.alt" horiz-adv-x="222" 
d="M133 714l-1 -110h-49v105c0 49 26 63 58 65v-22c-20 -5 -29 -13 -29 -38h21z" />
    <glyph glyph-name="caron.alt" horiz-adv-x="222" 
d="M108 714h50l-52 -142h-31z" />
    <glyph glyph-name="Amacron" unicode="&#x100;" horiz-adv-x="686" 
d="M343 662l-179 -392h358zM-11 0l328 714h52l328 -714h-52l-105 230h-394l-105 -230h-52zM153 822v34h382v-34h-382z" />
    <glyph glyph-name="Abreve" unicode="&#x102;" horiz-adv-x="686" 
d="M343 662l-179 -392h358zM-11 0l328 714h52l328 -714h-52l-105 230h-394l-105 -230h-52zM184 898h34c15 -67 61 -83 124 -83s109 16 124 83h34c-11 -87 -78 -117 -158 -117s-147 30 -158 117z" />
    <glyph glyph-name="Aogonek" unicode="&#x104;" horiz-adv-x="686" 
d="M727 -148l12 -25c-23 -9 -64 -17 -103 -17c-65 0 -95 29 -95 72c0 32 20 58 44 78c25 20 44 31 60 40l-105 230h-394l-105 -230h-52l328 714h52l328 -714h-20c-36 -25 -96 -66 -96 -112c0 -37 24 -50 65 -50c35 0 57 5 81 14zM343 662l-179 -392h358z" />
    <glyph glyph-name="Cacute" unicode="&#x106;" horiz-adv-x="796" 
d="M714 271h46c-16 -136 -138 -287 -351 -287c-216 0 -380 137 -380 373c0 173 118 373 380 373c172 0 302 -80 339 -240h-46c-35 137 -158 200 -293 200c-204 0 -334 -153 -334 -333c0 -179 115 -333 334 -333c158 0 278 92 305 247zM511 910h58l-157 -142h-45z" />
    <glyph glyph-name="Ccircumflex" unicode="&#x108;" horiz-adv-x="796" 
d="M714 271h46c-16 -136 -138 -287 -351 -287c-216 0 -380 137 -380 373c0 173 118 373 380 373c172 0 302 -80 339 -240h-46c-35 137 -158 200 -293 200c-204 0 -334 -153 -334 -333c0 -179 115 -333 334 -333c158 0 278 92 305 247zM586 768h-53l-130 114l-130 -114h-53
l155 142h56z" />
    <glyph glyph-name="Ccaron" unicode="&#x10c;" horiz-adv-x="796" 
d="M714 271h46c-16 -136 -138 -287 -351 -287c-216 0 -380 137 -380 373c0 173 118 373 380 373c172 0 302 -80 339 -240h-46c-35 137 -158 200 -293 200c-204 0 -334 -153 -334 -333c0 -179 115 -333 334 -333c158 0 278 92 305 247zM534 910h53l-155 -142h-56l-155 142h53
l130 -114z" />
    <glyph glyph-name="Cdotaccent" unicode="&#x10a;" horiz-adv-x="796" 
d="M714 271h46c-16 -136 -138 -287 -351 -287c-216 0 -380 137 -380 373c0 173 118 373 380 373c172 0 302 -80 339 -240h-46c-35 137 -158 200 -293 200c-204 0 -334 -153 -334 -333c0 -179 115 -333 334 -333c158 0 278 92 305 247zM380 786v106h46v-106h-46z" />
    <glyph glyph-name="Dcaron" unicode="&#x10e;" horiz-adv-x="759" 
d="M106 674v-634h289c157 0 273 97 273 317c0 226 -115 317 -284 317h-278zM60 0v714h334c169 0 320 -81 320 -357c0 -209 -106 -357 -328 -357h-326zM464 910h53l-155 -142h-56l-155 142h53l130 -114z" />
    <glyph glyph-name="Ecaron" unicode="&#x11a;" horiz-adv-x="648" 
d="M60 0v714h564v-40h-518v-284h497v-40h-497v-310h524v-40h-570zM474 910h53l-155 -142h-56l-155 142h53l130 -114z" />
    <glyph glyph-name="Emacron" unicode="&#x112;" horiz-adv-x="648" 
d="M60 0v714h564v-40h-518v-284h497v-40h-497v-310h524v-40h-570zM156 822v34h382v-34h-382z" />
    <glyph glyph-name="Ebreve" unicode="&#x114;" horiz-adv-x="648" 
d="M60 0v714h564v-40h-518v-284h497v-40h-497v-310h524v-40h-570zM180 898h34c15 -67 61 -83 124 -83s109 16 124 83h34c-11 -87 -78 -117 -158 -117s-147 30 -158 117z" />
    <glyph glyph-name="Edotaccent" unicode="&#x116;" horiz-adv-x="648" 
d="M60 0v714h564v-40h-518v-284h497v-40h-497v-310h524v-40h-570zM321 786v106h46v-106h-46z" />
    <glyph glyph-name="Eogonek" unicode="&#x118;" horiz-adv-x="648" 
d="M619 -148l12 -25c-23 -9 -64 -17 -103 -17c-65 0 -95 29 -95 72c0 32 20 58 44 78c25 20 44 31 60 40h-477v714h564v-40h-518v-284h497v-40h-497v-310h524v-40h-61c-36 -25 -96 -66 -96 -112c0 -37 24 -50 65 -50c35 0 57 5 81 14z" />
    <glyph glyph-name="Gcircumflex" unicode="&#x11c;" horiz-adv-x="833" 
d="M440 316v40h333v-356h-40v176h-2c-53 -128 -175 -192 -312 -192c-216 0 -380 137 -380 373c0 173 118 373 380 373c175 0 305 -86 339 -240h-46c-30 132 -150 200 -293 200c-204 0 -334 -153 -334 -333c0 -179 115 -333 334 -333c180 0 297 111 308 292h-287zM595 768
h-53l-130 114l-130 -114h-53l155 142h56z" />
    <glyph glyph-name="Gbreve" unicode="&#x11e;" horiz-adv-x="833" 
d="M440 316v40h333v-356h-40v176h-2c-53 -128 -175 -192 -312 -192c-216 0 -380 137 -380 373c0 173 118 373 380 373c175 0 305 -86 339 -240h-46c-30 132 -150 200 -293 200c-204 0 -334 -153 -334 -333c0 -179 115 -333 334 -333c180 0 297 111 308 292h-287zM257 898h34
c15 -67 61 -83 124 -83s109 16 124 83h34c-11 -87 -78 -117 -158 -117s-147 30 -158 117z" />
    <glyph glyph-name="Gdotaccent" unicode="&#x120;" horiz-adv-x="833" 
d="M440 316v40h333v-356h-40v176h-2c-53 -128 -175 -192 -312 -192c-216 0 -380 137 -380 373c0 173 118 373 380 373c175 0 305 -86 339 -240h-46c-30 132 -150 200 -293 200c-204 0 -334 -153 -334 -333c0 -179 115 -333 334 -333c180 0 297 111 308 292h-287zM388 786
v106h46v-106h-46z" />
    <glyph glyph-name="Gcommaaccent" unicode="&#x122;" horiz-adv-x="833" 
d="M440 316v40h333v-356h-40v176h-2c-53 -128 -175 -192 -312 -192c-216 0 -380 137 -380 373c0 173 118 373 380 373c175 0 305 -86 339 -240h-46c-30 132 -150 200 -293 200c-204 0 -334 -153 -334 -333c0 -179 115 -333 334 -333c180 0 297 111 308 292h-287zM389 -160
l1 110h49v-105c0 -49 -26 -63 -58 -65v22c20 4 29 13 29 38h-21z" />
    <glyph glyph-name="Hcircumflex" unicode="&#x124;" horiz-adv-x="759" 
d="M60 0v714h46v-318h547v318h46v-714h-46v356h-547v-356h-46zM557 768h-53l-130 114l-130 -114h-53l155 142h56z" />
    <glyph glyph-name="Hbar" unicode="&#x126;" horiz-adv-x="759" 
d="M60 0v714h46v-186h547v186h46v-714h-46v356h-547v-356h-46zM106 396h547v98h-547v-98z" />
    <glyph glyph-name="Itilde" unicode="&#x128;" 
d="M60 0v714h46v-714h-46zM-57 795h-34c5 44 41 88 94 88c32 0 60 -12 87 -27c27 -13 51 -27 78 -27c41 0 50 34 55 54h34c-3 -23 -12 -44 -27 -61c-15 -16 -34 -27 -59 -27c-35 0 -64 14 -91 27c-27 15 -52 27 -80 27c-32 0 -54 -26 -57 -54z" />
    <glyph glyph-name="Imacron" unicode="&#x12a;" 
d="M60 0v714h46v-714h-46zM-108 822v34h382v-34h-382z" />
    <glyph glyph-name="Idotaccent" unicode="&#x130;" 
d="M60 0v714h46v-714h-46zM60 786v106h46v-106h-46z" />
    <glyph glyph-name="Iogonek" unicode="&#x12e;" 
d="M148 -148l11 -25c-20 -9 -55 -17 -88 -17c-56 0 -81 29 -81 72c0 32 17 58 38 78s36 31 51 40h-19v714h46v-714c-31 -25 -82 -65 -82 -112c0 -37 20 -50 55 -50c31 0 49 5 69 14z" />
    <glyph glyph-name="Jcircumflex" unicode="&#x134;" horiz-adv-x="537" 
d="M24 228h46v-17c0 -64 15 -187 183 -187c123 0 178 64 178 187v503h46v-499c0 -156 -85 -231 -224 -231c-116 0 -229 50 -229 227v17zM634 768h-53l-130 114l-130 -114h-53l155 142h56z" />
    <glyph glyph-name="Kcommaaccent" unicode="&#x136;" horiz-adv-x="704" 
d="M60 0v714h46v-410l514 410h73l-370 -295l396 -419h-64l-368 390l-181 -144v-246h-46zM339 -160l1 110h49v-105c0 -49 -26 -63 -58 -65v22c20 4 29 13 29 38h-21z" />
    <glyph glyph-name="Lacute" unicode="&#x139;" horiz-adv-x="574" 
d="M60 0v714h46v-674h468v-40h-514zM204 910h58l-157 -142h-45z" />
    <glyph glyph-name="Lcaron" unicode="&#x13d;" horiz-adv-x="574" 
d="M60 0v714h46v-674h468v-40h-514zM231 714h50l-52 -142h-31z" />
    <glyph glyph-name="Lcommaaccent" unicode="&#x13b;" horiz-adv-x="574" 
d="M60 0v714h46v-674h468v-40h-514zM288 -160l1 110h49v-105c0 -49 -26 -63 -58 -65v22c20 4 29 13 29 38h-21z" />
    <glyph glyph-name="Nacute" unicode="&#x143;" horiz-adv-x="759" 
d="M60 0v714h58l533 -650h2v650h46v-714h-58l-533 650h-2v-650h-46zM476 910h58l-157 -142h-45z" />
    <glyph glyph-name="Ncaron" unicode="&#x147;" horiz-adv-x="759" 
d="M60 0v714h58l533 -650h2v650h46v-714h-58l-533 650h-2v-650h-46zM502 910h53l-155 -142h-56l-155 142h53l130 -114z" />
    <glyph glyph-name="Ncommaaccent" unicode="&#x145;" horiz-adv-x="759" 
d="M60 0v714h58l533 -650h2v650h46v-714h-58l-533 650h-2v-650h-46zM345 -160l1 110h49v-105c0 -49 -26 -63 -58 -65v22c20 4 29 13 29 38h-21z" />
    <glyph glyph-name="Omacron" unicode="&#x14c;" horiz-adv-x="816" 
d="M29 357c0 139 89 373 379 373c289 0 379 -234 379 -373s-90 -373 -379 -373s-379 234 -379 373zM75 357c0 -171 118 -333 333 -333s333 162 333 333s-118 333 -333 333s-333 -162 -333 -333zM221 822v34h382v-34h-382z" />
    <glyph glyph-name="Obreve" unicode="&#x14e;" horiz-adv-x="816" 
d="M29 357c0 139 89 373 379 373c289 0 379 -234 379 -373s-90 -373 -379 -373s-379 234 -379 373zM75 357c0 -171 118 -333 333 -333s333 162 333 333s-118 333 -333 333s-333 -162 -333 -333zM249 898h34c15 -67 61 -83 124 -83s109 16 124 83h34
c-11 -87 -78 -117 -158 -117s-147 30 -158 117z" />
    <glyph glyph-name="Ohungarumlaut" unicode="&#x150;" horiz-adv-x="816" 
d="M29 357c0 139 89 373 379 373c289 0 379 -234 379 -373s-90 -373 -379 -373s-379 234 -379 373zM75 357c0 -171 118 -333 333 -333s333 162 333 333s-118 333 -333 333s-333 -162 -333 -333zM625 910h58l-157 -142h-45zM431 910h58l-157 -142h-45z" />
    <glyph glyph-name="Racute" unicode="&#x154;" horiz-adv-x="704" 
d="M106 674v-309h311c45 0 203 0 203 163c0 116 -90 146 -191 146h-323zM60 0v714h365c137 0 241 -40 241 -189c0 -76 -45 -153 -146 -177v-2c88 -11 133 -71 134 -148c3 -132 7 -171 20 -198h-46c-13 12 -17 57 -20 166c-3 124 -43 159 -184 159h-318v-325h-46zM432 910h58
l-157 -142h-45z" />
    <glyph glyph-name="Rcaron" unicode="&#x158;" horiz-adv-x="704" 
d="M106 674v-309h311c45 0 203 0 203 163c0 116 -90 146 -191 146h-323zM60 0v714h365c137 0 241 -40 241 -189c0 -76 -45 -153 -146 -177v-2c88 -11 133 -71 134 -148c3 -132 7 -171 20 -198h-46c-13 12 -17 57 -20 166c-3 124 -43 159 -184 159h-318v-325h-46zM460 910h53
l-155 -142h-56l-155 142h53l130 -114z" />
    <glyph glyph-name="Rcommaaccent" unicode="&#x156;" horiz-adv-x="704" 
d="M106 674v-309h311c45 0 203 0 203 163c0 116 -90 146 -191 146h-323zM60 0v714h365c137 0 241 -40 241 -189c0 -76 -45 -153 -146 -177v-2c88 -11 133 -71 134 -148c3 -132 7 -171 20 -198h-46c-13 12 -17 57 -20 166c-3 124 -43 159 -184 159h-318v-325h-46zM333 -160
l1 110h49v-105c0 -49 -26 -63 -58 -65v22c20 4 29 13 29 38h-21z" />
    <glyph glyph-name="Sacute" unicode="&#x15a;" horiz-adv-x="667" 
d="M28 236h46c1 -133 82 -212 274 -212c176 0 239 75 239 159c0 81 -39 115 -188 147l-133 28c-157 32 -216 80 -216 187s94 185 270 185c180 0 294 -66 299 -218h-46c-5 82 -53 178 -240 178c-174 0 -231 -64 -231 -146c0 -76 33 -114 169 -141l147 -29
c143 -29 221 -74 221 -188c0 -97 -64 -202 -287 -202c-235 0 -324 100 -324 252zM439 910h58l-157 -142h-45z" />
    <glyph glyph-name="Scircumflex" unicode="&#x15c;" horiz-adv-x="667" 
d="M28 236h46c1 -133 82 -212 274 -212c176 0 239 75 239 159c0 81 -39 115 -188 147l-133 28c-157 32 -216 80 -216 187s94 185 270 185c180 0 294 -66 299 -218h-46c-5 82 -53 178 -240 178c-174 0 -231 -64 -231 -146c0 -76 33 -114 169 -141l147 -29
c143 -29 221 -74 221 -188c0 -97 -64 -202 -287 -202c-235 0 -324 100 -324 252zM519 768h-53l-130 114l-130 -114h-53l155 142h56z" />
    <glyph glyph-name="Scedilla" unicode="&#x15e;" horiz-adv-x="667" 
d="M28 236h46c1 -133 82 -212 274 -212c176 0 239 75 239 159c0 81 -39 115 -188 147l-133 28c-157 32 -216 80 -216 187s94 185 270 185c180 0 294 -66 299 -218h-46c-5 82 -53 178 -240 178c-174 0 -231 -64 -231 -146c0 -76 33 -114 169 -141l147 -29
c143 -29 221 -74 221 -188c0 -97 -64 -202 -287 -202h-10l-36 -39l2 -2c19 4 33 6 44 6c40 0 85 -20 85 -63c0 -56 -62 -76 -111 -76c-33 0 -80 9 -111 18l10 28c24 -9 65 -18 90 -18c18 0 82 0 82 45c0 31 -36 38 -61 38c-29 0 -44 -5 -59 -12l-17 15l50 61
c-41 3 -77 8 -108 17c-124 36 -174 119 -174 234z" />
    <glyph glyph-name="Scedilla" unicode="&#xf6c1;" horiz-adv-x="667" 
d="M28 236h46c1 -133 82 -212 274 -212c176 0 239 75 239 159c0 81 -39 115 -188 147l-133 28c-157 32 -216 80 -216 187s94 185 270 185c180 0 294 -66 299 -218h-46c-5 82 -53 178 -240 178c-174 0 -231 -64 -231 -146c0 -76 33 -114 169 -141l147 -29
c143 -29 221 -74 221 -188c0 -97 -64 -202 -287 -202h-10l-36 -39l2 -2c19 4 33 6 44 6c40 0 85 -20 85 -63c0 -56 -62 -76 -111 -76c-33 0 -80 9 -111 18l10 28c24 -9 65 -18 90 -18c18 0 82 0 82 45c0 31 -36 38 -61 38c-29 0 -44 -5 -59 -12l-17 15l50 61
c-41 3 -77 8 -108 17c-124 36 -174 119 -174 234z" />
    <glyph glyph-name="Scommaaccent" unicode="&#x218;" horiz-adv-x="667" 
d="M28 236h46c1 -133 82 -212 274 -212c176 0 239 75 239 159c0 81 -39 115 -188 147l-133 28c-157 32 -216 80 -216 187s94 185 270 185c180 0 294 -66 299 -218h-46c-5 82 -53 178 -240 178c-174 0 -231 -64 -231 -146c0 -76 33 -114 169 -141l147 -29
c143 -29 221 -74 221 -188c0 -97 -64 -202 -287 -202c-235 0 -324 100 -324 252zM316 -160l1 110h49v-105c0 -49 -26 -63 -58 -65v22c20 4 29 13 29 38h-21z" />
    <glyph glyph-name="Tcaron" unicode="&#x164;" horiz-adv-x="592" 
d="M-15 674v40h622v-40h-288v-674h-46v674h-288zM426 910h53l-155 -142h-56l-155 142h53l130 -114z" />
    <glyph glyph-name="Tcommaaccent" unicode="&#x162;" horiz-adv-x="592" 
d="M-15 674v40h622v-40h-288v-674h-46v674h-288zM270 -160l1 110h49v-105c0 -49 -26 -63 -58 -65v22c20 4 29 13 29 38h-21z" />
    <glyph glyph-name="Tbar" unicode="&#x166;" horiz-adv-x="592" 
d="M82 412v34h191v228h-288v40h622v-40h-288v-228h191v-34h-191v-412h-46v412h-191z" />
    <glyph glyph-name="Utilde" unicode="&#x168;" horiz-adv-x="740" 
d="M54 264v450h46v-448c0 -152 73 -242 270 -242s270 90 270 242v448h46v-450c0 -185 -105 -280 -316 -280s-316 95 -316 280zM228 795h-34c5 44 41 88 94 88c32 0 60 -12 87 -27c27 -13 51 -27 78 -27c41 0 50 34 55 54h34c-3 -23 -12 -44 -27 -61c-15 -16 -34 -27 -59 -27
c-35 0 -64 14 -91 27c-27 15 -52 27 -80 27c-32 0 -54 -26 -57 -54z" />
    <glyph glyph-name="Umacron" unicode="&#x16a;" horiz-adv-x="740" 
d="M54 264v450h46v-448c0 -152 73 -242 270 -242s270 90 270 242v448h46v-450c0 -185 -105 -280 -316 -280s-316 95 -316 280zM175 822v34h382v-34h-382z" />
    <glyph glyph-name="Ubreve" unicode="&#x16c;" horiz-adv-x="740" 
d="M54 264v450h46v-448c0 -152 73 -242 270 -242s270 90 270 242v448h46v-450c0 -185 -105 -280 -316 -280s-316 95 -316 280zM210 898h34c15 -67 61 -83 124 -83s109 16 124 83h34c-11 -87 -78 -117 -158 -117s-147 30 -158 117z" />
    <glyph glyph-name="Uring" unicode="&#x16e;" horiz-adv-x="740" 
d="M54 264v450h46v-448c0 -152 73 -242 270 -242s270 90 270 242v448h46v-450c0 -185 -105 -280 -316 -280s-316 95 -316 280zM291 860c0 -43 33 -76 76 -76s76 33 76 76s-33 76 -76 76s-76 -33 -76 -76zM257 860c0 61 49 110 110 110s110 -49 110 -110s-49 -110 -110 -110
s-110 49 -110 110z" />
    <glyph glyph-name="Uhungarumlaut" unicode="&#x170;" horiz-adv-x="740" 
d="M54 264v450h46v-448c0 -152 73 -242 270 -242s270 90 270 242v448h46v-450c0 -185 -105 -280 -316 -280s-316 95 -316 280zM571 910h58l-157 -142h-45zM377 910h58l-157 -142h-45z" />
    <glyph glyph-name="Uogonek" unicode="&#x172;" horiz-adv-x="740" 
d="M460 -148l12 -25c-23 -9 -64 -17 -103 -17c-65 0 -95 29 -95 72c0 48 48 84 77 102c-96 3 -169 26 -218 70c-53 47 -79 117 -79 210v450h46v-448c0 -152 73 -242 270 -242s270 90 270 242v448h46v-450c0 -93 -26 -163 -79 -210c-50 -44 -123 -67 -220 -70
c-3 -2 -5 -4 -7 -5c-34 -26 -66 -56 -66 -91c0 -37 24 -50 65 -50c35 0 57 5 81 14z" />
    <glyph glyph-name="Wcircumflex" unicode="&#x174;" horiz-adv-x="1018" 
d="M220 0l-235 714h52l212 -650h2l229 650h58l229 -650h2l212 650h52l-235 -714h-58l-230 650h-2l-230 -650h-58zM692 768h-53l-130 114l-130 -114h-53l155 142h56z" />
    <glyph glyph-name="Ycircumflex" unicode="&#x176;" horiz-adv-x="668" 
d="M311 300l-331 414h64l290 -371l296 371h58l-331 -414v-300h-46v300zM518 768h-53l-130 114l-130 -114h-53l155 142h56z" />
    <glyph glyph-name="Zacute" unicode="&#x179;" horiz-adv-x="611" 
d="M-5 0v49l561 625h-528v40h580v-46l-561 -628h569v-40h-621zM409 910h58l-157 -142h-45z" />
    <glyph glyph-name="Zdotaccent" unicode="&#x17b;" horiz-adv-x="611" 
d="M-5 0v49l561 625h-528v40h580v-46l-561 -628h569v-40h-621zM287 786v106h46v-106h-46z" />
    <glyph glyph-name="amacron" unicode="&#x101;" horiz-adv-x="593" 
d="M95 354h-46c16 129 84 174 238 174c148 0 235 -35 235 -150v-287c0 -38 -1 -61 34 -61c14 0 29 3 45 8v-40c-15 -5 -33 -8 -56 -8c-63 0 -63 44 -63 112h-2c-56 -105 -177 -118 -244 -118c-44 0 -210 0 -210 156c0 104 89 142 193 147l179 12c53 3 78 11 78 73
c0 69 -39 116 -190 116c-135 0 -178 -42 -191 -134zM476 192v94h-2c-11 -12 -38 -24 -82 -27l-173 -12c-85 -5 -147 -31 -147 -107c0 -104 106 -116 167 -116c102 0 237 45 237 168zM110 653v34h382v-34h-382z" />
    <glyph glyph-name="abreve" unicode="&#x103;" horiz-adv-x="593" 
d="M95 354h-46c16 129 84 174 238 174c148 0 235 -35 235 -150v-287c0 -38 -1 -61 34 -61c14 0 29 3 45 8v-40c-15 -5 -33 -8 -56 -8c-63 0 -63 44 -63 112h-2c-56 -105 -177 -118 -244 -118c-44 0 -210 0 -210 156c0 104 89 142 193 147l179 12c53 3 78 11 78 73
c0 69 -39 116 -190 116c-135 0 -178 -42 -191 -134zM476 192v94h-2c-11 -12 -38 -24 -82 -27l-173 -12c-85 -5 -147 -31 -147 -107c0 -104 106 -116 167 -116c102 0 237 45 237 168zM131 729h34c15 -67 61 -83 124 -83s109 16 124 83h34c-11 -87 -78 -117 -158 -117
s-147 30 -158 117z" />
    <glyph glyph-name="aogonek" unicode="&#x105;" horiz-adv-x="593" 
d="M589 -148l12 -25c-23 -9 -64 -17 -103 -17c-65 0 -95 29 -95 72c0 48 48 84 77 102c9 6 18 11 26 16c-7 5 -13 11 -16 20c-8 20 -8 47 -8 82h-2c-56 -105 -177 -118 -244 -118c-44 0 -210 0 -210 156c0 104 89 142 193 147l179 12c53 3 78 11 78 73
c0 69 -39 116 -190 116c-135 0 -178 -42 -191 -134h-46c16 129 84 174 238 174c148 0 235 -35 235 -150v-287c0 -38 -1 -61 34 -61c14 0 29 3 45 8v-40c-15 -5 -33 -8 -56 -8c-7 0 -14 1 -19 2c-5 -4 -11 -8 -17 -13c-34 -26 -66 -56 -66 -91c0 -37 24 -50 65 -50
c35 0 57 5 81 14zM476 192v94h-2c-11 -12 -38 -24 -82 -27l-173 -12c-85 -5 -147 -31 -147 -107c0 -104 106 -116 167 -116c102 0 237 45 237 168z" />
    <glyph glyph-name="cacute" unicode="&#x107;" horiz-adv-x="611" 
d="M578 351h-46c-5 64 -94 137 -217 137c-163 0 -243 -115 -243 -237c0 -83 58 -227 243 -227c104 0 200 49 224 155h46c-27 -134 -142 -195 -270 -195c-168 0 -289 108 -289 267c0 180 132 277 289 277c156 0 258 -90 263 -177zM431 741h58l-157 -142h-45z" />
    <glyph glyph-name="ccircumflex" unicode="&#x109;" horiz-adv-x="611" 
d="M578 351h-46c-5 64 -94 137 -217 137c-163 0 -243 -115 -243 -237c0 -83 58 -227 243 -227c104 0 200 49 224 155h46c-27 -134 -142 -195 -270 -195c-168 0 -289 108 -289 267c0 180 132 277 289 277c156 0 258 -90 263 -177zM498 599h-53l-130 114l-130 -114h-53
l155 142h56z" />
    <glyph glyph-name="ccaron" unicode="&#x10d;" horiz-adv-x="611" 
d="M578 351h-46c-5 64 -94 137 -217 137c-163 0 -243 -115 -243 -237c0 -83 58 -227 243 -227c104 0 200 49 224 155h46c-27 -134 -142 -195 -270 -195c-168 0 -289 108 -289 267c0 180 132 277 289 277c156 0 258 -90 263 -177zM444 741h53l-155 -142h-56l-155 142h53
l130 -114z" />
    <glyph glyph-name="cdotaccent" unicode="&#x10b;" horiz-adv-x="611" 
d="M578 351h-46c-5 64 -94 137 -217 137c-163 0 -243 -115 -243 -237c0 -83 58 -227 243 -227c104 0 200 49 224 155h46c-27 -134 -142 -195 -270 -195c-168 0 -289 108 -289 267c0 180 132 277 289 277c156 0 258 -90 263 -177zM291 617v106h46v-106h-46z" />
    <glyph glyph-name="dcaron" unicode="&#x10f;" horiz-adv-x="671" 
d="M294 24c192 0 240 135 240 227c0 180 -130 237 -234 237c-118 0 -228 -74 -228 -230c0 -147 95 -234 222 -234zM528 0v112h-2c-24 -61 -95 -128 -227 -128c-180 0 -273 129 -273 273c0 163 117 271 273 271c126 0 198 -69 227 -125h2v311h46v-714h-46zM655 714h50
l-52 -142h-31z" />
    <glyph glyph-name="dcroat" unicode="&#x111;" horiz-adv-x="664" 
d="M528 0v112h-2c-24 -61 -95 -128 -227 -128c-180 0 -273 129 -273 273c0 163 117 271 273 271c126 0 198 -69 227 -125h2v183h-206v34h206v94h46v-94h100v-34h-100v-586h-46zM294 24c192 0 240 135 240 227c0 180 -130 237 -234 237c-118 0 -228 -74 -228 -230
c0 -147 95 -234 222 -234z" />
    <glyph glyph-name="ecaron" unicode="&#x11b;" horiz-adv-x="611" 
d="M72 286h470c-19 140 -118 202 -235 202c-133 0 -215 -79 -235 -202zM594 246h-522c3 -128 89 -222 244 -222c160 0 199 101 218 146h46c-43 -129 -132 -186 -269 -186c-175 0 -285 105 -285 276c0 107 67 268 286 268c179 0 279 -118 282 -282zM447 741h53l-155 -142h-56
l-155 142h53l130 -114z" />
    <glyph glyph-name="emacron" unicode="&#x113;" horiz-adv-x="611" 
d="M72 286h470c-19 140 -118 202 -235 202c-133 0 -215 -79 -235 -202zM594 246h-522c3 -128 89 -222 244 -222c160 0 199 101 218 146h46c-43 -129 -132 -186 -269 -186c-175 0 -285 105 -285 276c0 107 67 268 286 268c179 0 279 -118 282 -282zM130 653v34h382v-34h-382z
" />
    <glyph glyph-name="ebreve" unicode="&#x115;" horiz-adv-x="611" 
d="M72 286h470c-19 140 -118 202 -235 202c-133 0 -215 -79 -235 -202zM594 246h-522c3 -128 89 -222 244 -222c160 0 199 101 218 146h46c-43 -129 -132 -186 -269 -186c-175 0 -285 105 -285 276c0 107 67 268 286 268c179 0 279 -118 282 -282zM155 729h34
c15 -67 61 -83 124 -83s109 16 124 83h34c-11 -87 -78 -117 -158 -117s-147 30 -158 117z" />
    <glyph glyph-name="edotaccent" unicode="&#x117;" horiz-adv-x="611" 
d="M72 286h470c-19 140 -118 202 -235 202c-133 0 -215 -79 -235 -202zM594 246h-522c3 -128 89 -222 244 -222c160 0 199 101 218 146h46c-43 -129 -132 -186 -269 -186c-175 0 -285 105 -285 276c0 107 67 268 286 268c179 0 279 -118 282 -282zM288 617v106h46v-106h-46z
" />
    <glyph glyph-name="eogonek" unicode="&#x119;" horiz-adv-x="611" 
d="M396 -148l12 -25c-23 -9 -64 -17 -103 -17c-65 0 -95 29 -95 72c0 48 48 84 77 102l1 1c-35 2 -67 8 -96 18c-103 38 -166 129 -166 257c0 107 67 268 286 268c179 0 279 -118 282 -282h-522c3 -128 89 -222 244 -222c160 0 199 101 218 146h46
c-21 -65 -54 -112 -99 -142c-42 -27 -95 -42 -158 -44c-3 -2 -5 -4 -7 -5c-34 -26 -66 -56 -66 -91c0 -37 24 -50 65 -50c35 0 57 5 81 14zM72 286h470c-19 140 -118 202 -235 202c-133 0 -215 -79 -235 -202z" />
    <glyph glyph-name="gcircumflex" unicode="&#x11d;" horiz-adv-x="648" 
d="M546 408v104h46v-487c0 -116 -43 -245 -280 -245c-160 0 -248 47 -265 172h46c11 -81 69 -132 219 -132c199 0 234 108 234 203v106h-2c-45 -85 -132 -123 -240 -123c-199 0 -278 127 -278 264c0 133 83 258 279 258c91 0 191 -26 239 -119zM305 488
c-121 0 -233 -68 -233 -216c0 -147 85 -226 238 -226c133 0 236 71 236 227c0 136 -90 215 -241 215zM511 599h-53l-130 114l-130 -114h-53l155 142h56z" />
    <glyph glyph-name="gbreve" unicode="&#x11f;" horiz-adv-x="648" 
d="M546 408v104h46v-487c0 -116 -43 -245 -280 -245c-160 0 -248 47 -265 172h46c11 -81 69 -132 219 -132c199 0 234 108 234 203v106h-2c-45 -85 -132 -123 -240 -123c-199 0 -278 127 -278 264c0 133 83 258 279 258c91 0 191 -26 239 -119zM305 488
c-121 0 -233 -68 -233 -216c0 -147 85 -226 238 -226c133 0 236 71 236 227c0 136 -90 215 -241 215zM154 729h34c15 -67 61 -83 124 -83s109 16 124 83h34c-11 -87 -78 -117 -158 -117s-147 30 -158 117z" />
    <glyph glyph-name="gdotaccent" unicode="&#x121;" horiz-adv-x="648" 
d="M546 408v104h46v-487c0 -116 -43 -245 -280 -245c-160 0 -248 47 -265 172h46c11 -81 69 -132 219 -132c199 0 234 108 234 203v106h-2c-45 -85 -132 -123 -240 -123c-199 0 -278 127 -278 264c0 133 83 258 279 258c91 0 191 -26 239 -119zM305 488
c-121 0 -233 -68 -233 -216c0 -147 85 -226 238 -226c133 0 236 71 236 227c0 136 -90 215 -241 215zM293 617v106h46v-106h-46z" />
    <glyph glyph-name="gcommaaccent" unicode="&#x123;" horiz-adv-x="648" 
d="M546 408v104h46v-487c0 -116 -43 -245 -280 -245c-160 0 -248 47 -265 172h46c11 -81 69 -132 219 -132c199 0 234 108 234 203v106h-2c-45 -85 -132 -123 -240 -123c-199 0 -278 127 -278 264c0 133 83 258 279 258c91 0 191 -26 239 -119zM305 488
c-121 0 -233 -68 -233 -216c0 -147 85 -226 238 -226c133 0 236 71 236 227c0 136 -90 215 -241 215zM335 714l-1 -110h-49v105c0 49 26 63 58 65v-22c-20 -5 -29 -13 -29 -38h21z" />
    <glyph glyph-name="hcircumflex" unicode="&#x125;" horiz-adv-x="611" 
d="M56 0v714h46v-304h2c32 61 100 118 216 118c235 0 235 -151 235 -212v-316h-46v314c0 104 -39 174 -190 174c-152 0 -217 -93 -217 -189v-299h-46zM496 768h-53l-130 114l-130 -114h-53l155 142h56z" />
    <glyph glyph-name="hbar" unicode="&#x127;" horiz-adv-x="645" 
d="M-10 586v34h100v94h46v-94h196v-34h-196v-176h2c32 61 100 118 216 118c235 0 235 -151 235 -212v-316h-46v314c0 104 -39 174 -190 174c-152 0 -217 -93 -217 -189v-299h-46v586h-100z" />
    <glyph glyph-name="itilde" unicode="&#x129;" 
d="M60 0v512h46v-512h-46zM-57 626h-34c5 44 41 88 94 88c32 0 60 -12 87 -27c27 -13 51 -27 78 -27c41 0 50 34 55 54h34c-3 -23 -12 -44 -27 -61c-15 -16 -34 -27 -59 -27c-35 0 -64 14 -91 27c-27 15 -52 27 -80 27c-32 0 -54 -26 -57 -54z" />
    <glyph glyph-name="imacron" unicode="&#x12b;" 
d="M60 0v512h46v-512h-46zM-108 653v34h382v-34h-382z" />
    <glyph glyph-name="iogonek" unicode="&#x12f;" 
d="M148 -148l11 -25c-20 -9 -55 -17 -88 -17c-56 0 -81 29 -81 72c0 32 17 58 38 78s36 31 51 40h-19v512h46v-512c-31 -25 -82 -65 -82 -112c0 -37 20 -50 55 -50c31 0 49 5 69 14zM60 608v106h46v-106h-46z" />
    <glyph glyph-name="dotlessj" unicode="&#xf6be;" 
d="M106 512v-604c0 -89 -47 -128 -132 -128c-31 0 -47 3 -62 6v40c15 -3 39 -6 62 -6c85 0 86 58 86 128v564h46z" />
    <glyph glyph-name="dotlessj" unicode="&#xfb0f;" 
d="M106 512v-604c0 -89 -47 -128 -132 -128c-31 0 -47 3 -62 6v40c15 -3 39 -6 62 -6c85 0 86 58 86 128v564h46z" />
    <glyph glyph-name="jcircumflex" unicode="&#x135;" 
d="M106 512v-604c0 -89 -47 -128 -132 -128c-31 0 -47 3 -62 6v40c15 -3 39 -6 62 -6c85 0 86 58 86 128v564h46zM263 599h-53l-130 114l-130 -114h-53l155 142h56z" />
    <glyph glyph-name="kcommaaccent" unicode="&#x137;" horiz-adv-x="556" 
d="M56 0v714h46v-474l365 272h68l-259 -193l283 -319h-63l-256 290l-138 -102v-188h-46zM267 -160l1 110h49v-105c0 -49 -26 -63 -58 -65v22c20 4 29 13 29 38h-21z" />
    <glyph glyph-name="lacute" unicode="&#x13a;" 
d="M60 0v714h46v-714h-46zM204 910h58l-157 -142h-45z" />
    <glyph glyph-name="lcaron" unicode="&#x13e;" horiz-adv-x="203" 
d="M60 0v714h46v-714h-46zM187 714h50l-52 -142h-31z" />
    <glyph glyph-name="lcommaaccent" unicode="&#x13c;" 
d="M60 0v714h46v-714h-46zM57 -160l1 110h49v-105c0 -49 -26 -63 -58 -65v22c20 4 29 13 29 38h-21z" />
    <glyph glyph-name="nacute" unicode="&#x144;" horiz-adv-x="611" 
d="M56 0v512h46v-102h2c32 61 100 118 216 118c235 0 235 -151 235 -212v-316h-46v314c0 104 -39 174 -190 174c-152 0 -217 -93 -217 -189v-299h-46zM409 741h58l-157 -142h-45z" />
    <glyph glyph-name="ncaron" unicode="&#x148;" horiz-adv-x="611" 
d="M56 0v512h46v-102h2c32 61 100 118 216 118c235 0 235 -151 235 -212v-316h-46v314c0 104 -39 174 -190 174c-152 0 -217 -93 -217 -189v-299h-46zM435 741h53l-155 -142h-56l-155 142h53l130 -114z" />
    <glyph glyph-name="ncommaaccent" unicode="&#x146;" horiz-adv-x="611" 
d="M56 0v512h46v-102h2c32 61 100 118 216 118c235 0 235 -151 235 -212v-316h-46v314c0 104 -39 174 -190 174c-152 0 -217 -93 -217 -189v-299h-46zM277 -160l1 110h49v-105c0 -49 -26 -63 -58 -65v22c20 4 29 13 29 38h-21z" />
    <glyph glyph-name="omacron" unicode="&#x14d;" horiz-adv-x="630" 
d="M26 256c0 143 106 272 289 272s289 -129 289 -272c0 -145 -106 -272 -289 -272s-289 127 -289 272zM72 256c0 -116 80 -232 243 -232s243 116 243 232s-80 232 -243 232s-243 -116 -243 -232zM126 653v34h382v-34h-382z" />
    <glyph glyph-name="obreve" unicode="&#x14f;" horiz-adv-x="630" 
d="M26 256c0 143 106 272 289 272s289 -129 289 -272c0 -145 -106 -272 -289 -272s-289 127 -289 272zM72 256c0 -116 80 -232 243 -232s243 116 243 232s-80 232 -243 232s-243 -116 -243 -232zM156 729h34c15 -67 61 -83 124 -83s109 16 124 83h34
c-11 -87 -78 -117 -158 -117s-147 30 -158 117z" />
    <glyph glyph-name="ohungarumlaut" unicode="&#x151;" horiz-adv-x="630" 
d="M26 256c0 143 106 272 289 272s289 -129 289 -272c0 -145 -106 -272 -289 -272s-289 127 -289 272zM72 256c0 -116 80 -232 243 -232s243 116 243 232s-80 232 -243 232s-243 -116 -243 -232zM534 741h58l-157 -142h-45zM340 741h58l-157 -142h-45z" />
    <glyph glyph-name="racute" unicode="&#x155;" horiz-adv-x="352" 
d="M56 0v512h46v-121h2c35 91 112 137 212 137c15 0 23 -2 38 -6v-46c-11 4 -24 6 -53 6c-133 0 -199 -101 -199 -205v-277h-46zM203 741h58l-157 -142h-45z" />
    <glyph glyph-name="rcommaaccent" unicode="&#x157;" horiz-adv-x="352" 
d="M56 0v512h46v-121h2c35 91 112 137 212 137c15 0 23 -2 38 -6v-46c-11 4 -24 6 -53 6c-133 0 -199 -101 -199 -205v-277h-46zM53 -160l1 110h49v-105c0 -49 -26 -63 -58 -65v22c20 4 29 13 29 38h-21z" />
    <glyph glyph-name="rcaron" unicode="&#x159;" horiz-adv-x="352" 
d="M56 0v512h46v-121h2c35 91 112 137 212 137c15 0 23 -2 38 -6v-46c-11 4 -24 6 -53 6c-133 0 -199 -101 -199 -205v-277h-46zM332 741h53l-155 -142h-56l-155 142h53l130 -114z" />
    <glyph glyph-name="sacute" unicode="&#x15b;" horiz-adv-x="537" 
d="M496 362h-46c-7 85 -61 126 -194 126c-125 0 -167 -49 -167 -102c0 -56 42 -79 103 -87l163 -22c96 -13 161 -48 161 -140c0 -139 -158 -153 -245 -153c-141 0 -242 48 -250 176h46c5 -52 17 -136 216 -136c135 0 187 40 187 113c0 60 -43 85 -103 93l-180 24
c-64 8 -144 37 -144 129c0 58 41 145 215 145c189 0 233 -86 238 -166zM382 741h58l-157 -142h-45z" />
    <glyph glyph-name="scircumflex" unicode="&#x15d;" horiz-adv-x="537" 
d="M496 362h-46c-7 85 -61 126 -194 126c-125 0 -167 -49 -167 -102c0 -56 42 -79 103 -87l163 -22c96 -13 161 -48 161 -140c0 -139 -158 -153 -245 -153c-141 0 -242 48 -250 176h46c5 -52 17 -136 216 -136c135 0 187 40 187 113c0 60 -43 85 -103 93l-180 24
c-64 8 -144 37 -144 129c0 58 41 145 215 145c189 0 233 -86 238 -166zM457 599h-53l-130 114l-130 -114h-53l155 142h56z" />
    <glyph glyph-name="scedilla" unicode="&#x15f;" horiz-adv-x="537" 
d="M496 362h-46c-7 85 -61 126 -194 126c-125 0 -167 -49 -167 -102c0 -56 42 -79 103 -87l163 -22c96 -13 161 -48 161 -140c0 -103 -89 -140 -170 -148c-24 -3 -46 -4 -65 -5l-36 -39l2 -2c19 4 33 6 44 6c40 0 85 -20 85 -63c0 -56 -62 -76 -111 -76c-33 0 -80 9 -111 18
l10 28c24 -9 65 -18 90 -18c18 0 82 0 82 45c0 31 -36 38 -61 38c-29 0 -44 -5 -59 -12l-17 15l50 61c-27 1 -53 4 -76 9c-88 18 -146 71 -152 166h46c5 -52 17 -136 216 -136c135 0 187 40 187 113c0 60 -43 85 -103 93l-180 24c-64 8 -144 37 -144 129
c0 58 41 145 215 145c189 0 233 -86 238 -166z" />
    <glyph glyph-name="scedilla" unicode="&#xf6c2;" horiz-adv-x="537" 
d="M496 362h-46c-7 85 -61 126 -194 126c-125 0 -167 -49 -167 -102c0 -56 42 -79 103 -87l163 -22c96 -13 161 -48 161 -140c0 -103 -89 -140 -170 -148c-24 -3 -46 -4 -65 -5l-36 -39l2 -2c19 4 33 6 44 6c40 0 85 -20 85 -63c0 -56 -62 -76 -111 -76c-33 0 -80 9 -111 18
l10 28c24 -9 65 -18 90 -18c18 0 82 0 82 45c0 31 -36 38 -61 38c-29 0 -44 -5 -59 -12l-17 15l50 61c-27 1 -53 4 -76 9c-88 18 -146 71 -152 166h46c5 -52 17 -136 216 -136c135 0 187 40 187 113c0 60 -43 85 -103 93l-180 24c-64 8 -144 37 -144 129
c0 58 41 145 215 145c189 0 233 -86 238 -166z" />
    <glyph glyph-name="scommaaccent" unicode="&#x219;" horiz-adv-x="537" 
d="M496 362h-46c-7 85 -61 126 -194 126c-125 0 -167 -49 -167 -102c0 -56 42 -79 103 -87l163 -22c96 -13 161 -48 161 -140c0 -139 -158 -153 -245 -153c-141 0 -242 48 -250 176h46c5 -52 17 -136 216 -136c135 0 187 40 187 113c0 60 -43 85 -103 93l-180 24
c-64 8 -144 37 -144 129c0 58 41 145 215 145c189 0 233 -86 238 -166zM248 -160l1 110h49v-105c0 -49 -26 -63 -58 -65v22c20 4 29 13 29 38h-21z" />
    <glyph glyph-name="tcaron" unicode="&#x165;" horiz-adv-x="344" 
d="M106 512v173h46v-173h152v-40h-152v-369c0 -63 36 -73 93 -73c21 0 43 3 64 6v-40c-24 -5 -53 -6 -78 -6c-107 0 -125 40 -125 138v344h-116v40h116zM304 714h50l-52 -142h-31z" />
    <glyph glyph-name="tcommaaccent" unicode="&#x163;" horiz-adv-x="315" 
d="M106 512v173h46v-173h152v-40h-152v-369c0 -63 36 -73 93 -73c21 0 43 3 64 6v-40c-24 -5 -53 -6 -78 -6c-107 0 -125 40 -125 138v344h-116v40h116zM160 -160l1 110h49v-105c0 -49 -26 -63 -58 -65v22c20 4 29 13 29 38h-21z" />
    <glyph glyph-name="tbar" unicode="&#x167;" horiz-adv-x="315" 
d="M-20 300v34h126v138h-116v40h116v173h46v-173h152v-40h-152v-138h162v-34h-162v-197c0 -63 36 -73 93 -73c11 0 21 1 32 2l32 4v-40c-24 -5 -53 -6 -78 -6c-107 0 -125 40 -125 138v172h-126z" />
    <glyph glyph-name="utilde" unicode="&#x169;" horiz-adv-x="611" 
d="M555 512v-512h-46v102h-2c-32 -61 -100 -118 -216 -118c-235 0 -235 150 -235 212v316h46v-314c0 -104 39 -174 190 -174c152 0 217 93 217 189v299h46zM163 626h-34c5 44 41 88 94 88c32 0 60 -12 87 -27c27 -13 51 -27 78 -27c41 0 50 34 55 54h34
c-3 -23 -12 -44 -27 -61c-15 -16 -34 -27 -59 -27c-35 0 -64 14 -91 27c-27 15 -52 27 -80 27c-32 0 -54 -26 -57 -54z" />
    <glyph glyph-name="umacron" unicode="&#x16b;" horiz-adv-x="611" 
d="M555 512v-512h-46v102h-2c-32 -61 -100 -118 -216 -118c-235 0 -235 150 -235 212v316h46v-314c0 -104 39 -174 190 -174c152 0 217 93 217 189v299h46zM118 653v34h382v-34h-382z" />
    <glyph glyph-name="ubreve" unicode="&#x16d;" horiz-adv-x="611" 
d="M555 512v-512h-46v102h-2c-32 -61 -100 -118 -216 -118c-235 0 -235 150 -235 212v316h46v-314c0 -104 39 -174 190 -174c152 0 217 93 217 189v299h46zM145 729h34c15 -67 61 -83 124 -83s109 16 124 83h34c-11 -87 -78 -117 -158 -117s-147 30 -158 117z" />
    <glyph glyph-name="uring" unicode="&#x16f;" horiz-adv-x="611" 
d="M555 512v-512h-46v102h-2c-32 -61 -100 -118 -216 -118c-235 0 -235 150 -235 212v316h46v-314c0 -104 39 -174 190 -174c152 0 217 93 217 189v299h46zM227 700c0 -43 33 -76 76 -76s76 33 76 76s-33 76 -76 76s-76 -33 -76 -76zM193 700c0 61 49 110 110 110
s110 -49 110 -110s-49 -110 -110 -110s-110 49 -110 110z" />
    <glyph glyph-name="uhungarumlaut" unicode="&#x171;" horiz-adv-x="611" 
d="M555 512v-512h-46v102h-2c-32 -61 -100 -118 -216 -118c-235 0 -235 150 -235 212v316h46v-314c0 -104 39 -174 190 -174c152 0 217 93 217 189v299h46zM514 741h58l-157 -142h-45zM320 741h58l-157 -142h-45z" />
    <glyph glyph-name="uogonek" unicode="&#x173;" horiz-adv-x="611" 
d="M586 -148l12 -25c-21 -9 -61 -17 -98 -17c-63 0 -90 29 -90 72c0 32 18 58 42 78s41 31 57 40v102h-2c-32 -61 -100 -118 -216 -118c-235 0 -235 150 -235 212v316h46v-314c0 -104 39 -174 190 -174c152 0 217 93 217 189v299h46v-512h-16c-35 -26 -91 -65 -91 -112
c0 -37 22 -50 61 -50c33 0 54 5 77 14z" />
    <glyph glyph-name="wcircumflex" unicode="&#x175;" horiz-adv-x="870" 
d="M231 58l175 454h58l181 -454l179 454h52l-209 -512h-52l-180 460l-180 -460h-52l-209 512h52zM621 599h-53l-130 114l-130 -114h-53l155 142h56z" />
    <glyph glyph-name="ycircumflex" unicode="&#x177;" horiz-adv-x="519" 
d="M246 0l-259 512h52l230 -461l211 461h52l-282 -602c-26 -55 -52 -94 -132 -94h-64v40h55c59 0 72 13 111 92zM451 599h-53l-130 114l-130 -114h-53l155 142h56z" />
    <glyph glyph-name="zacute" unicode="&#x17a;" horiz-adv-x="519" 
d="M12 0v46l417 426h-391v40h455v-34l-429 -438h443v-40h-495zM374 741h58l-157 -142h-45z" />
    <glyph glyph-name="zdotaccent" unicode="&#x17c;" horiz-adv-x="519" 
d="M12 0v46l417 426h-391v40h455v-34l-429 -438h443v-40h-495zM246 617v106h46v-106h-46z" />
    <glyph glyph-name="ldot" unicode="&#x140;" horiz-adv-x="252" 
d="M60 0v714h46v-714h-46zM166 406v106h46v-106h-46z" />
    <glyph glyph-name="Ldot" unicode="&#x13f;" horiz-adv-x="574" 
d="M60 0v714h46v-674h468v-40h-514zM241 406v106h46v-106h-46z" />
    <glyph glyph-name=".null" horiz-adv-x="500" 
 />
    <glyph glyph-name=".null" horiz-adv-x="500" 
 />
    <glyph glyph-name="CR" unicode="&#xd;" horiz-adv-x="0" 
 />
    <glyph glyph-name="uni00A0" unicode="&#xa0;" horiz-adv-x="222" 
 />
    <glyph glyph-name="uniF8FF" unicode="&#xf8ff;" horiz-adv-x="512" 
d="M222 117h56v67h-56v-67zM225 234h46c0 35 2 59 6 72s18 30 43 52c51 47 63 77 63 120c0 79 -53 131 -124 131c-72 0 -126 -42 -135 -137l50 -8c8 68 41 95 82 95s76 -37 76 -85c0 -25 -7 -42 -50 -83c-22 -22 -37 -42 -46 -59s-13 -44 -13 -81zM462 50h-412v617h412v-617
zM512 718h-512v-718h512v718z" />
    <glyph glyph-name="uni00AD" unicode="&#xad;" horiz-adv-x="407" 
d="M75 247v46h257v-46h-257z" />
    <glyph glyph-name="Dcroat" unicode="&#x110;" horiz-adv-x="759" 
d="M106 674v-284h266v-40h-266v-310h289c157 0 273 97 273 317c0 226 -115 317 -284 317h-278zM60 0v350h-60v40h60v324h334c169 0 320 -81 320 -357c0 -209 -106 -357 -328 -357h-326z" />
    <glyph glyph-name="grave.cap" 
d="M103 599l-157 142h58l144 -142h-45z" />
    <glyph glyph-name="acute.cap" 
d="M162 741h58l-157 -142h-45z" />
    <glyph glyph-name="circumflex.cap" 
d="M266 599h-53l-130 114l-130 -114h-53l155 142h56z" />
    <glyph glyph-name="caron.cap" 
d="M213 741h53l-155 -142h-56l-155 142h53l130 -114z" />
    <glyph glyph-name="tilde.cap" 
d="M-57 626h-34c5 44 41 88 94 88c32 0 60 -12 87 -27c27 -13 51 -27 78 -27c41 0 50 34 55 54h34c-3 -23 -12 -44 -27 -61c-15 -16 -34 -27 -59 -27c-35 0 -64 14 -91 27c-27 15 -52 27 -80 27c-32 0 -54 -26 -57 -54z" />
    <glyph glyph-name="dieresis.cap" 
d="M166 617v106h46v-106h-46zM-46 617v106h46v-106h-46z" />
    <glyph glyph-name="macron.cap" 
d="M-108 653v34h382v-34h-382z" />
    <glyph glyph-name="uni02C9" unicode="&#x2c9;" 
d="M-108 653v34h382v-34h-382z" />
    <glyph glyph-name="breve.cap" 
d="M-75 729h34c15 -67 61 -83 124 -83s109 16 124 83h34c-11 -87 -78 -117 -158 -117s-147 30 -158 117z" />
    <glyph glyph-name="ring.cap" 
d="M7 700c0 -43 33 -76 76 -76s76 33 76 76s-33 76 -76 76s-76 -33 -76 -76zM-27 700c0 61 49 110 110 110s110 -49 110 -110s-49 -110 -110 -110s-110 49 -110 110z" />
    <glyph glyph-name="hungarumlaut.cap" 
d="M258 741h58l-157 -142h-45zM64 741h58l-157 -142h-45z" />
    <glyph glyph-name="dotaccent.cap" 
d="M60 617v106h46v-106h-46z" />
    <glyph glyph-name="uni2219" unicode="&#x2219;" horiz-adv-x="222" 
d="M55 320c0 31 25 56 56 56s56 -25 56 -56s-25 -56 -56 -56s-56 25 -56 56z" />
    <glyph glyph-name="uni2215" unicode="&#x2215;" horiz-adv-x="167" 
d="M-165 -16l457 736h40l-457 -736h-40z" />
    <glyph glyph-name="uni0394" unicode="&#x394;" horiz-adv-x="648" 
d="M572 41l-250 624l-248 -624h498zM635 0h-620l286 712h44z" />
    <glyph glyph-name="uni03A9" unicode="&#x3a9;" horiz-adv-x="734" 
d="M674 0h-235v170c127 19 193 125 193 247c0 152 -119 265 -270 265c-149 0 -268 -116 -268 -265c0 -120 68 -231 194 -247v-170h-236v38h200v101c-129 38 -200 146 -200 278c0 173 140 304 311 304s311 -132 311 -304c0 -130 -70 -243 -198 -278v-101h198v-38z" />
    <glyph glyph-name="uni03BC" unicode="&#x3bc;" horiz-adv-x="611" 
d="M555 512v-512h-46v102h-2c-32 -61 -100 -118 -216 -118c-115 0 -163 43 -187 80h-2v-266h-46v714h46v-314c0 -104 39 -174 190 -174c152 0 217 93 217 189v299h46z" />
    <glyph glyph-name="uni021A" unicode="&#x21a;" horiz-adv-x="592" 
d="M-15 674v40h622v-40h-288v-674h-46v674h-288zM270 -160l1 110h49v-105c0 -49 -26 -63 -58 -65v22c20 4 29 13 29 38h-21z" />
    <glyph glyph-name="uni021B" unicode="&#x21b;" horiz-adv-x="315" 
d="M106 512v173h46v-173h152v-40h-152v-369c0 -63 36 -73 93 -73c21 0 43 3 64 6v-40c-24 -5 -53 -6 -78 -6c-107 0 -125 40 -125 138v344h-116v40h116zM160 -160l1 110h49v-105c0 -49 -26 -63 -58 -65v22c20 4 29 13 29 38h-21z" />
    <glyph glyph-name="afii61289" unicode="&#x2113;" horiz-adv-x="500" 
d="M396 35c-33 -33 -71 -49 -110 -49c-58 0 -110 32 -110 119v148l-60 -68h-2l-15 19l77 83v269c0 111 49 165 106 165c52 0 90 -42 90 -118c0 -96 -59 -208 -161 -324v-168c0 -78 45 -96 81 -96c29 0 60 11 88 39h2zM342 599c0 58 -27 95 -60 95c-36 0 -71 -39 -71 -134
v-246c82 98 131 202 131 285z" />
    <glyph glyph-name="estimated" unicode="&#x212e;" horiz-adv-x="600" 
d="M561 259h-404v-181c39 -39 87 -59 145 -59c83 0 143 36 193 120l35 -21c-61 -95 -123 -135 -228 -135c-157 0 -258 122 -258 276c0 155 101 276 258 276c154 0 258 -114 259 -276zM157 295h291v145c-42 40 -91 60 -147 60c-57 0 -105 -21 -144 -60v-145z" />
    </font>
</defs>
</svg>
